<svg id="Layer_1" xmlns="http://www.w3.org/2000/svg" viewBox="0 0 1135.1 345.1"><style>.st0{fill:#D1AA67;} .st1{fill:#FFFFFF;}</style><path class="st0" d="M388.6 121.9c-.7.1-1.5.2-2.1.4-1.2.4-1.7 1.6-1.3 2.9.3.8.7 1.4 1.3 1.9.7.5 1.4.9 2.1 1.3 1.7.9 3.6 1.6 5.5 2.1 3.5 1 6.9 2.2 10.2 3.5 2.4.9 4.8 1.9 7.1 2.9 3.6 1.5 7.2 2.9 10.9 4 2.9.8 5.7 1.7 8.6 2.5 2.4.7 4.7 1.4 7 2.4 1.8.8 3.6 1.5 5.4 2.2 1.2.5 2.4.9 3.7 1.1.4.1.8.2 1.1.3 5.3 2.3 10.9 4.1 16.3 6.1l20.4 7.5c1.3.5 2.7 1 4 1.6 2.4 1 5 1.8 7.5 2.7.4.1.8.2 1.3.3.2 0 .3.1.5.1.5.1 1-.2 1.1-.7.1-.4-.1-.8-.5-1.1-.2-.1-.5-.2-.7-.3-3.4-1-6.7-2.3-10-3.7-7.1-3-14.1-6.1-21.1-9.1-10.1-4.4-20.3-8.5-30.6-12.5-4.8-1.9-9.7-3.9-14.4-6.1-3.4-1.6-7-3.1-10.5-4.6l-3.6-1.5c-4.8-2.2-9.8-3.6-14.8-5.3-1.4-.5-2.9-.7-4.4-.9zm178.4-7.1c.5-1 .7-1.4.6-1.9-.2-1.1-.4-2.2-.9-3.2-.6-.9-1.1-1.9-1.6-2.8-2-3.9-4.1-7.7-6-11.7-2.2-4.6-4.1-9.4-6-14.1-1.1-2.7-2.1-5.4-3.2-8.1-2.7-6.9-5.4-13.8-8.9-20.4-2.4-4.4-4.2-9-6.1-13.6-1.4-3.4-2.8-6.7-4.4-10-1-1.9-2-3.8-2.8-5.7-1.9-4.2-3.8-8.5-5.8-12.6-.5-.9-.9-1.9-1.3-2.8-.7-1.4-1.4-2.8-2.2-4.1-.3-.5-.6-1-1-1.5-.6-.7-1.2-.9-1.8-.6-.7.3-.8 1-.7 1.7 0 .4.1.9.2 1.3.3 1 .6 2.1 1.1 3.1 1.4 3 2.7 6 4.3 8.9 1.7 3.1 3.1 6.4 4.2 9.8 1.2 3.5 2.5 7 4.1 10.4 2.5 5.1 4.8 10.3 7 15.5 3.2 7.9 7.1 15.5 10.9 23.1 2.4 4.8 5.1 9.5 7.6 14.2 1.2 2.3 2.3 4.6 3.4 6.9.5 1 1 2.1 1.5 3.2 2.3 4.6 4.5 9.2 6.8 13.8.2.3.3.6.5.9-.2 0 0 .2.5.3zm33.2 41.4c.1-.7 0-1.4.2-2 .2-.7.1-1.4-.1-2.1l-4.5-19.5c-1.5-6.2-2.7-12.4-3.6-18.8-.4-3-.9-5.9-1.7-8.8-.7-2.5-1.3-5-1.7-7.5-.4-2.8-.9-5.7-1.8-8.4-1.5-4.7-2.5-9.5-3.6-14.2-.6-2.4-1-4.8-1.6-7.2-.9-3.7-1.7-7.3-2.3-11.1-.6-3.6-1.3-7.2-2.3-10.7-.2-.8-.5-1.6-.9-2.4-.4-1-1.1-1.6-2-2.2-.6-.4-1.2-.2-1.5.5-.1.3-.3.7-.3 1-.1 1.5-.2 3 .1 4.5.5 2.4 1.1 4.8 1.6 7.2.6 3 1.3 6 2.3 8.9 1.7 5.2 3.3 10.5 4.4 15.9.4 1.8.7 3.6 1 5.4.4 2.5.7 5.1 1.2 7.6.9 4.4 2.1 8.7 3.4 13 1.3 4.2 2.3 8.4 3 12.8.5 2.9 1 5.7 1.8 8.5 1 3.5 2 7 2.9 10.5 1.5 5.9 2.9 11.8 4.3 17.7.1.3.2.6.2.8.4.2.9.4 1.5.6zm121.7 4.1c.9.5 1.6.1 2.4-.2 6.3-3.1 12.6-6.1 19-9.1 5.7-2.7 11.3-5.6 17.2-8.1 4.4-1.9 8.9-3.7 13.3-5.5 3.3-1.4 6.6-2.6 9.8-4.1 4.6-2.1 9.2-4.4 13.8-6.7 3.5-1.7 7-3.5 10.5-5.2 3.7-1.8 7.5-3.5 11.2-5.2 1.9-.9 3.7-1.8 5.6-2.8 1.7-.9 3.4-2 4.9-3.2.4-.3.8-.7 1.1-1.1.3-.4.6-.9.8-1.3.4-1.1-.2-1.9-1.3-2-.7-.1-1.4.1-2 .4-1.9.7-3.7 1.6-5.4 2.8-.9.6-1.7 1.3-2.6 1.9-1.7 1.2-3.4 2.5-5.3 3.5-13.1 6.3-26.2 12.6-39.4 19-5.3 2.6-10.6 5.1-16.1 7.2-4.8 1.9-9.5 3.8-14.3 5.6-4.3 1.7-8.4 3.6-12.4 6-3 1.8-5.9 3.6-9.1 5-1 .5-1.5 1.4-1.7 2.5-.2.1-.1.4 0 .6zm-28.3-156c0-.6-.1-1.3-.5-1.7-.3-.4-.5-.7-.6-1.2-.1-.8-.8-1-1.5-.5-.3.2-.5.4-.8.4-.8.2-1.3.7-1.7 1.4-.4.8-.8 1.5-1.1 2.3-1.6 4.5-3.2 9-4.7 13.5-1.9 6-4.1 12-6.2 18-1.1 3.1-2.2 6.1-3.3 9.2-.3.9-.7 1.9-1 2.8-1.2 3.3-2.4 6.5-3.6 9.8-.8 2.2-1.6 4.4-2.5 6.6-1 2.5-2.1 4.9-3 7.3-1.2 3.3-2.3 6.6-3.4 10-1.8 5-3.6 10-5.4 15.1-.1.3-.2.7-.3 1 0 .4.3.8.6.9.4.1.7 0 .9-.2.1-.1.2-.3.3-.4.5-1.3 1.1-2.6 1.7-3.9.8-1.9 1.5-3.9 2.2-5.8 4-10.9 7.8-21.9 12.5-32.5 2.4-5.6 4.8-11.2 7.2-16.7 1.5-3.4 3-6.7 4.4-10.1l3.3-7.8c1.4-3.4 2.9-6.9 4.3-10.3.7-1.6 1.2-3.3 1.7-5 .3-1.1.4-1.6.5-2.2zm29.8 74.9c-.1.5.2.9.6 1 .4.1.7 0 1-.2.4-.4.8-.9 1.2-1.4 6.5-7.9 13.3-15.4 20.2-22.9 1.2-1.3 2.4-2.7 3.4-4.1 2.2-2.9 4.5-5.7 7.1-8.3.7-.7 1.3-1.4 1.9-2.2 2.8-3.6 5.8-7 9.1-10.2 1-1 1.9-2 2.8-3.1.4-.5.7-1 1-1.5.2-.3.3-.7.1-1.1-.1-.3-.2-.7-.3-1-.3-.7-1-1.1-1.7-.9-.5.1-1 .3-1.4.6-1 .6-1.9 1.4-2.6 2.3-.8 1.1-1.6 2.1-2.4 3.3-.7 1-1.4 1.8-2.4 2.5-1.4 1-2.6 2.1-3.7 3.4-2.1 2.6-4.3 5.2-6.2 8-.8 1.2-1.7 2.4-2.8 3.4-1.7 1.6-3.1 3.4-4.5 5.2-.7 1-1.5 2-2.3 3-1.2 1.5-2.5 3-3.7 4.6-1.9 2.4-3.8 4.8-5.8 7.2l-5.7 6.6c-.7.8-1.2 1.7-1.8 2.5-.6 1.1-.9 2.1-1.1 3.3zM480.1 98c-.1-.1-.1-.4-.3-.6-.3-.4-.7-.8-1.1-1.1-4.7-4.8-9.4-9.4-13.9-14.5-1.1-1.3-2.4-2.5-3.7-3.6-2.5-2.3-5.1-4.4-7.9-6.4-2.8-2.1-5.5-4.2-8.2-6.4-2.3-1.9-4.7-3.6-7-5.4-1.4-1.1-2.9-2.2-4.3-3.3-.9-.7-1.8-1.5-2.8-2.2-.9-.6-1.7-1.3-2.5-2.1l-2.2-2.2c-.4-.4-.9-.7-1.5-.6-.2 0-.4-.1-.6-.2-.2-.1-.5-.2-.7-.3-.4-.1-.8 0-1 .4-.2.3-.3.6-.1 1 .2.3.3.6.6.9 1.1 1.3 2.2 2.7 3.5 3.9 2.4 2.4 4.8 4.8 7.4 6.9.7.5 1.3 1.1 2 1.7 3.6 3.4 7.6 6.2 11.9 8.6 1.3.7 2.5 1.6 3.7 2.7.9.9 1.8 1.7 2.8 2.5 2.4 1.8 4.6 3.8 6.7 5.9 2.1 2.1 4.2 4.1 6.4 6.1 3.5 3.1 7.2 6 10.8 9 .2.2.4.3.6.4.7.3 1.5-.2 1.4-1.1zm183.8 25.9c.3-.4.5-.7.7-1.1 4-6.3 7.8-12.6 11.3-19.1 1.4-2.6 2.8-5.3 4.3-7.8 1.6-2.6 3.1-5.2 4.6-7.8 3.6-6.5 7.4-12.8 11.3-19.1 1.5-2.4 2.9-4.8 4.1-7.4.3-.7.6-1.5 1.1-2.2.4-.5.3-1.5-.2-2.1-.5-.6-1.2-.8-2-.4-.6.3-1.1.7-1.5 1.2-.3.5-.6.9-.9 1.4-1.3 2.2-2.6 4.4-3.8 6.6-.5.8-.9 1.6-1.3 2.4-1.4 2.9-2.8 5.9-4.2 8.8-1.3 2.8-2.6 5.5-4.2 8.1-1.9 3.3-3.8 6.6-5.8 9.9-2.7 4.5-5.3 9-8 13.6-1.3 2.3-2.7 4.6-3.9 6.9-1.2 2.1-2.2 4.2-3.3 6.3-.1.3-.2.5-.3.8.1.1.1.2.2.3.5.1 1.1.3 1.8.7zM636.4 18.8h-.1v-2.7c0-.6-.2-1.2-.4-1.8-.3-.7-.8-1.2-1.6-1.2-.7 0-1.2.4-1.6 1-.2.3-.3.5-.4.8-.2.4-.3.9-.4 1.4-.5 2.3-.9 4.6-1 6.9-.1 2.4 0 4.9 0 7.3 0 1.2 0 2.3-.4 3.5-.1.3-.2.6-.1.9.4.8.2 1.6.1 2.4-.3 2.8-.6 5.6-1 8.4-.3 2.6-.6 5.2-.9 7.7-.3 2.3-.5 4.6-.8 6.8-.1.7-.1 1.5 0 2.2 0 .4.1.8.3 1.1.2.4.6.5 1 .4.4-.1.6-.4.7-.7V62c0-.5.1-.9.5-1.3.3-.3.4-.7.5-1 .3-1.3.7-2.5.9-3.8.4-2.4.8-4.9 1-7.3.5-4.3 1.1-8.5 1.7-12.8.6-3.7 1.3-7.4 1.6-11.2 0-1.9.2-3.8.4-5.8zM502.6 148.2c.2 0 .6-.1.9-.2.6-.2.7-.6.5-1.1-.4-.8-1-1.3-1.7-1.7-3.6-2.1-7.2-4.3-10.9-6-2.7-1.3-5.4-2.8-7.9-4.6-3.6-2.6-7.5-4.7-11.3-6.9-2.3-1.3-4.6-2.6-6.8-4.1-2.4-1.7-5.1-2.6-7.9-3.2-.3-.1-.6-.1-.9-.1-.6 0-1 .1-1.3.7-.3.5-.1 1 .2 1.5.3.3.6.7.9.9 1.1 1 2.4 1.8 3.8 2.4 4.2 1.8 8.2 3.9 12.3 5.9 2.5 1.2 4.9 2.6 7.2 4.1 5.3 3.4 10.6 6.7 16.2 9.5 1.4.7 2.8 1.4 4.1 2.2.8.5 1.6.6 2.6.7zm-3.1-80.7c-1.3 0-2 .9-1.6 1.9.1.4.3.7.5 1.1 1 1.8 2.3 3.5 3.9 4.8.6.5 1.2 1 1.7 1.6 1.1 1.3 2.2 2.7 3.1 4.1.8 1.2 1.7 2.4 2.7 3.5 2.4 2.7 4.7 5.4 6.8 8.4 1 1.4 2.2 2.7 3.4 3.9 1.8 1.7 3.4 3.6 4.9 5.6 2 2.7 4.3 5.2 6.2 8 .3.5.8.6 1.3.3.4-.2.6-.7.4-1.2-.2-.4-.4-.9-.6-1.3-.4-.9-.9-1.6-1.6-2.2-.4-.3-.8-.7-1.1-1.1-1.3-1.7-2.7-3.4-4-5.1-2.2-2.8-4.3-5.6-6.5-8.5-1.8-2.3-3.6-4.7-5.3-7.1-.2-.3-.4-.6-.6-1-2-3.4-4.3-6.6-6.5-9.9-1.1-1.7-2.5-3.2-4-4.6-.5-.4-1-.8-1.6-1.1-.6.1-1.2 0-1.5-.1zm252.2 29.6c-.7 0-1.2.4-1.7.8-3.4 2.5-6.7 4.9-9.7 7.9-1.9 1.9-4 3.7-6.2 5.3-2.6 1.9-5.1 3.9-7.4 6.1-1.6 1.5-3.2 2.9-4.8 4.3-2.2 2-4.5 3.9-6.8 5.9-.6.6-1.2 1.2-1.8 1.9-.2.2-.4.6-.5.9-.1.4.1.8.4 1 .3.2.7.2 1 0 .2-.1.3-.3.5-.4.8-.9 1.7-1.9 2.8-2.4.3-.1.6-.4.8-.6 2.3-1.8 4.5-3.7 6.8-5.5 3.2-2.5 6.5-4.9 9.7-7.4 1.9-1.4 3.8-2.8 5.8-4.3.5-.4 1.1-.8 1.5-1.2 2.8-2.5 5.6-4.9 8.5-7.2.7-.6 1.3-1.3 1.9-2 .3-.4.5-.9.7-1.4 0-.9-.6-1.7-1.5-1.7zm-221.5 44c-.6-1.2-1.2-2.4-2.2-3.3-1.3-1.1-2.6-2.3-3.9-3.4-5.1-4.1-10.3-8.2-15.5-12.3-1-.8-2-1.7-2.9-2.6-.7-.6-1.3-1.3-2-1.9-.5-.5-1.1-.9-1.8-1.2-.7-.3-1.5-.4-2 .3-.5.6-.4 1.3-.2 2 .3.8.8 1.5 1.4 2 .8.8 1.6 1.6 2.5 2.2 4.2 3.1 8.2 6.4 12.3 9.6 3.7 2.9 7.3 5.8 11 8.7.4.3.7.6 1.2.8.6.4 1.2.2 1.7-.3.1-.1.2-.3.4-.6zM717 160.7c-1.1.1-2 .3-2.9.7-5.7 2.7-11.4 5.4-17.1 8-3.8 1.7-7.5 3.6-11.1 5.7-.4.2-.7.4-1.2.5-.3 0-.6.2-.8.4-.3.5-.8.8-1.3 1.1-.8.5-1.7 1.1-2.5 1.6-.4.3-.6.7-.4 1.1.2.4.5.6.9.6.8.1 1.4-.1 2.1-.4 4.8-2.3 9.5-4.6 14.3-6.9 6.2-3 12.3-6 18.5-8.9.8-.4 1.4-.9 1.8-1.6.1-.2.3-.5.4-.7.1-.1.1-.2.1-.4-.2-.2-.5-.4-.8-.8zm-35-30.5c.5-.5 1-1.1 1.5-1.7 2.8-3.5 5.7-6.9 8.8-10.1.6-.6 1.2-1.3 1.7-1.9 1.9-2.1 3.8-4.2 5.6-6.3 1-1.1 2-2.3 3-3.4 1.5-1.7 2.4-3.7 3.4-5.6.3-.6 0-1.2-.6-1.3-1.3-.2-2.5 0-3.3 1.2-.2.2-.4.5-.6.7-1.1 1.4-2.2 2.8-3.2 4.3-2.9 4-6 7.8-9.1 11.7-.5.6-1 1.1-1.5 1.7-1.6 1.9-3.2 3.7-4.8 5.6l-3.3 3.9c-.2.2-.4.5-.5.7 1.1.5 1.4.6 2.9.5zm-175.2 18.9c.1.9.5 1.7 1.1 2.3.5.6 1.2 1 1.9 1.3 1.1.4 2.2.9 3.2 1.5 3.9 2.3 7.8 4.8 11.8 7.1 4 2.4 8.1 4.6 12.4 6.5 2.3 1 4.5 2.2 6.8 3.2.4.2.9.4 1.1.8.5.9 1.4.8 2.2.7.7-.1 1-1 .6-1.5-.3-.4-.7-.8-1.2-1-1.6-.7-3.1-1.5-4.6-2.4-5.8-3.5-11.7-6.8-17.6-10.1-3.1-1.7-6.3-3.4-9.5-4.8-1.2-.5-2.2-1.1-3.3-1.8-1-.7-2-1.3-3.1-2-.5-.2-1.1-.2-1.8.2zm116.3-30.4c.4-.1.6-.4.6-.7.1-.4.1-.8.2-1.2.1-1.7.3-3.4.4-5.1.1-1.5.2-2.9.4-4.4.2-1.8.4-3.6.5-5.4.3-4.7.8-9.3 1.8-13.9.3-1.3.3-2.6.2-3.9-.1-.8-.5-1.3-1-1.7-.5-.3-1.1-.2-1.3.3-.1.3-.2.7-.3 1l-1.5 14.1c-.7 6.2-1.3 12.4-2 18.6 0 .2-.1.4-.1.6 0 .4.2.7.5.8.5.3 1 .6 1.6.9zm55.2 14.1c-.4-.4-.8-.3-1.2 0-.9.7-1.9 1.4-2.8 2.1-.3.2-.5.5-.7.7-1.8 2.3-3.7 4.5-5.5 6.8-1.3 1.6-2.5 3.2-3.7 4.9-.6.8-1.1 1.6-1.7 2.4-.1.2-.3.4-.4.7-.1.3-.1.7.2 1 .3.3.6.4.9.2.7-.3 1.5-.5 1.7-1.5v-.1c.5-.8.9-1.6 2-1.7.3 0 .5-.3.7-.5.4-.4.8-.8 1.1-1.3 3.1-3.6 5.9-7.6 8.9-11.3.3-.3.4-.7.4-1.1.1-.5.1-.9.1-1.3zm-72.1-14.4v-.7c-.3-2.2-.5-4.5-.5-6.7 0-2.3 0-4.5-.1-6.8-.1-1.6-.2-3.2-.4-4.8 0-.6-.2-1.1-.6-1.6-.7-.8-1.7-.6-2.1.3-.1.2-.1.5-.2.8v.9c0 5.9.2 11.8 1.1 17.6.1.4.2.8.2 1.2 1.3.3 1.4.3 2.6-.2zM532 143.5c.7 1.2 1.2 2.4 2.4 3.2 1.2.9 2.4 1.8 3.5 2.7 3.4 2.7 6.8 5.4 10.2 8 .2.2.5.4.7.5 1.2.4 2 1.3 3.1 1.9l.9.6c.5.3 1 .2 1.3-.2.3-.4.2-1-.2-1.4-.4-.3-.8-.6-1.1-.8-2-1.4-4-2.8-5.7-4.5-.6-.6-1.2-1.1-1.9-1.6-2.6-1.9-5.1-3.9-7.5-6-.8-.7-1.7-1.4-2.5-2.1-.2-.2-.4-.4-.6-.5-.9-.3-1.7-.4-2.6.2zm-46.1-42.1c-1 0-1.8.5-2.2 1.2-.4.7-.2 1.4.2 2.1.2.2.4.5.6.7.4.4.9.9 1.3 1.2 2.9 2.3 5.9 4.3 9.3 5.9.3.1.6.2.9.1 1.1-.3 1.4-1.5.7-2.4-.2-.3-.5-.5-.8-.7-.4-.3-.8-.5-1.2-.8-.8-.4-1.4-1-2-1.6-1.4-1.4-2.9-2.8-4.3-4.1-.4-.4-.8-.7-1.3-1-.5-.3-1-.5-1.2-.6zm119.8 21.8c-.2.3-.4.5-.5.7-.5 1.1-.7 2.2-.5 3.4.3 2.3.6 4.6.8 7 .4 3.1.7 6.2 1.1 9.3 0 .4.1.8.2 1.1.1.5.6.8 1 .7.4 0 .7-.3.8-.7.2-.7.3-1.3.2-2-.4-3.9-.7-7.9-1-11.8-.1-1.4-.3-2.8-.5-4.3-.1-1.2-.5-2.4-1.6-3.4zm-35.3-.1c.2.5.5 1 .6 1.5 1.1 2.8 2.4 5.5 3.8 8.1.4.7.7 1.5 1.2 2.1 1 1.2 1.5 2.5 2.2 3.8.2.3.3.7.6 1 .3.5.8.6 1.2.4.4-.2.6-.7.5-1.2-.1-.4-.3-.7-.5-1.1-2.4-4.7-4.7-9.5-6.6-14.4-.5-1.2-1.1-2.4-1.6-3.5-.1-.2-.2-.5-.4-.7-.1-.2-.5-.2-.7.1-.3.6-.5 1.2-.3 1.9.4.7.3 1.4 0 2zm34.3-41.3c.1-1.1.2-2.3.2-3.5 0-1-.1-1.9-.5-2.8-.2-.6-.6-.9-1.3-.9-.6 0-1 .3-1.3.8-.2.3-.3.5-.4.8-.1.5-.2.9-.2 1.4-.2 2.1-.2 4.2.1 6.4.1 1.1.2 2.2.4 3.4 0 .3.2.7.4 1 .3.5 1.1.5 1.4 0 .4-.7.8-1.3.8-2.1.2-1.6.3-3 .4-4.5zm114.7 3.4c0-.9-.6-1.4-1.3-1.3-.3.1-.7.2-.9.4-.7.5-1.3 1-1.9 1.6-1.6 1.9-3.2 3.8-4.7 5.7-.2.2-.4.5-.5.7-.7 1.1-.6 1.6.5 2.3.5.3 1 .4 1.4 0 .4-.3.8-.6 1.1-.9 1.6-1.9 3.2-3.8 4.8-5.8.5-.6.8-1.2 1.2-1.9.2-.2.3-.6.3-.8zm-62.1 45.6c-.2.2-.3.4-.4.5-1.4 2.5-2.9 5-4.3 7.5-.2.3-.3.6-.4 1-.1.5-.3.9-.5 1.3-.6 1-1.1 1.9-1.7 2.9-.2.3-.3.6-.3 1-.1.3.1.6.4.8.3.2.7.2 1 0 .2-.1.4-.4.5-.6.3-.4.7-.9 1-1.3.2-.2.3-.4.4-.7.7-1.3 1.3-2.7 2.1-4 1.4-2.5 2.9-5 4.3-7.5.2-.3.4-.5.4-.9-.9-.6-1.7.1-2.5 0zm-38.5 5.9c0 .1 0 .5.1.8.1.3.5.5.8.5.3 0 .5-.2.6-.5.7-1.6 1.4-3.3 1.7-5.1.3-1.8.5-3.6.7-5.4.2-1.2-.4-2.1-.8-3.1 0-.1-.2-.2-.3-.3-.3-.2-.7-.2-.9.1-.3.4-.5.9-.6 1.4-.1.4-.1.9-.2 1.3-.2 1.5-.3 3-.5 4.5-.2 2-.4 3.8-.6 5.8zm9.9-65.9c-.1-.4-.1-.7-.1-1-.1-.5-.5-.8-1-.9-.5 0-.8.2-1.1.6-.2.3-.3.6-.4 1l-.3 1.8c-.2 1.7-.3 3.5-.4 5.2v.4c0 .6.4 1 1 1s1.1-.3 1.1-1c0-1.1.4-2.2.6-3.3.2-1.3.4-2.6.6-3.8z"/><path class="st0" d="M388.6 121.9c1.5.1 3 .4 4.4.9 5 1.6 10 3.1 14.8 5.3l3.6 1.5c3.5 1.4 7 2.9 10.5 4.6 4.7 2.2 9.5 4.2 14.4 6.1 10.3 4 20.5 8.1 30.6 12.5 7 3.1 14.1 6.1 21.1 9.1 3.3 1.4 6.6 2.7 10 3.7.2.1.5.2.7.3.4.2.6.7.5 1.1-.1.5-.6.8-1.1.7-.2 0-.3-.1-.5-.1-.4-.1-.8-.2-1.3-.3-2.5-.9-5-1.6-7.5-2.7-1.3-.6-2.7-1.1-4-1.6-6.8-2.5-13.6-5.1-20.4-7.5-5.5-2-11-3.8-16.3-6.1-.4-.2-.7-.3-1.1-.3-1.3-.2-2.5-.6-3.7-1.1-1.8-.7-3.6-1.4-5.4-2.2-2.3-1-4.6-1.7-7-2.4-2.9-.8-5.8-1.6-8.6-2.5-3.7-1.1-7.3-2.5-10.9-4-2.4-1-4.7-1.9-7.1-2.9-3.3-1.3-6.8-2.5-10.2-3.5-1.9-.6-3.7-1.2-5.5-2.1-.7-.4-1.4-.8-2.1-1.3-.6-.5-1.1-1.1-1.3-1.9-.4-1.2.1-2.4 1.3-2.9.6-.2 1.4-.2 2.1-.4zm.1 3.2c-.3-.3-.7-.6-1-.9-.1-.1-.4-.1-.5 0-.1.1-.2.3-.1.4.2.6.6 1 1.2 1.2.1-.2.2-.3.3-.4.1 0 .1-.1.1-.3zM567 114.8c-.5 0-.7-.3-.9-.6-.2-.3-.3-.6-.5-.9-2.3-4.6-4.5-9.2-6.8-13.8-.5-1.1-1-2.1-1.5-3.2-1.1-2.3-2.3-4.6-3.4-6.9-2.5-4.8-5.2-9.4-7.6-14.2-3.8-7.6-7.7-15.2-10.9-23.1-2.1-5.3-4.4-10.5-7-15.5-1.7-3.4-2.9-6.9-4.1-10.4-1.1-3.4-2.5-6.6-4.2-9.8-1.6-2.9-2.9-5.9-4.3-8.9-.5-1-.7-2-1.1-3.1-.1-.4-.2-.8-.2-1.3-.1-.7 0-1.3.7-1.7.6-.3 1.2-.1 1.8.6.4.5.7 1 1 1.5.7 1.4 1.5 2.8 2.2 4.1.5.9.9 1.9 1.3 2.8 2.1 4.1 4 8.4 5.8 12.6.9 1.9 1.9 3.8 2.8 5.7 1.7 3.2 3 6.6 4.4 10 2 4.6 3.8 9.2 6.1 13.6 3.5 6.6 6.2 13.5 8.9 20.4 1.1 2.7 2.1 5.4 3.2 8.1 2 4.7 3.9 9.5 6 14.1 1.8 4 4 7.8 6 11.7.5 1 1 1.9 1.6 2.8.6 1 .8 2.1.9 3.2.4.8.3 1.1-.2 2.2zM600.2 156.2c-.6-.2-1.1-.4-1.6-.6-.1-.2-.1-.5-.2-.8-1.4-5.9-2.8-11.8-4.3-17.7-.9-3.5-1.9-7-2.9-10.5-.8-2.8-1.3-5.7-1.8-8.5-.7-4.3-1.8-8.6-3-12.8-1.3-4.3-2.5-8.6-3.4-13-.5-2.5-.8-5.1-1.2-7.6-.3-1.8-.6-3.6-1-5.4-1.1-5.4-2.7-10.7-4.4-15.9-1-2.9-1.7-5.9-2.3-8.9-.5-2.4-1.1-4.8-1.6-7.2-.3-1.5-.3-3-.1-4.5 0-.3.1-.7.3-1 .3-.6.9-.8 1.5-.5.9.5 1.6 1.2 2 2.2l.9 2.4c1 3.5 1.7 7.1 2.3 10.7.6 3.7 1.4 7.4 2.3 11.1.6 2.4 1 4.8 1.6 7.2 1.1 4.8 2.1 9.6 3.6 14.2.9 2.7 1.3 5.6 1.8 8.4.4 2.5 1 5 1.7 7.5.8 2.9 1.4 5.8 1.7 8.8.8 6.3 2.1 12.6 3.6 18.8 1.6 6.5 3 13 4.5 19.5.2.7.2 1.3.1 2.1-.1.6 0 1.3-.1 2zM721.9 160.3c0-.2-.1-.5-.1-.7.2-1.1.7-2 1.7-2.5 3.1-1.5 6.1-3.3 9.1-5 4-2.4 8.1-4.3 12.4-6 4.8-1.9 9.5-3.8 14.3-5.6 5.5-2.1 10.8-4.7 16.1-7.2 13.1-6.3 26.2-12.7 39.4-19 1.9-.9 3.6-2.2 5.3-3.5.9-.6 1.7-1.3 2.6-1.9 1.7-1.2 3.5-2.1 5.4-2.8.7-.2 1.3-.4 2-.4 1.1.1 1.7.9 1.3 2-.2.5-.5.9-.8 1.3-.3.4-.7.7-1.1 1.1-1.5 1.2-3.1 2.3-4.9 3.2-1.9.9-3.7 1.9-5.6 2.8-3.7 1.7-7.5 3.4-11.2 5.2-3.5 1.7-7 3.5-10.5 5.2-4.6 2.3-9.2 4.6-13.8 6.7-3.2 1.5-6.6 2.7-9.8 4.1-4.4 1.8-8.9 3.7-13.3 5.5-5.8 2.4-11.5 5.4-17.2 8.1-6.3 3-12.7 6.1-19 9.1-.7.5-1.4.8-2.3.3zM693.6 4.3c-.1.6-.2 1.1-.3 1.7-.5 1.7-1.1 3.4-1.7 5-1.4 3.5-2.8 6.9-4.3 10.3l-3.3 7.8c-1.5 3.4-3 6.7-4.4 10.1-2.4 5.6-4.7 11.2-7.2 16.7-4.6 10.7-8.5 21.6-12.5 32.5-.7 2-1.4 3.9-2.2 5.8-.6 1.3-1.2 2.6-1.7 3.9-.1.2-.2.3-.3.4-.3.3-.6.4-.9.2-.4-.1-.7-.5-.6-.9 0-.3.1-.7.3-1 1.8-5 3.6-10 5.4-15.1 1.2-3.3 2.2-6.7 3.4-10 .9-2.5 2-4.9 3-7.3.9-2.2 1.7-4.4 2.5-6.6 1.2-3.3 2.4-6.5 3.6-9.8.3-.9.7-1.9 1-2.8 1.1-3.1 2.3-6.1 3.3-9.2 2.1-6 4.2-11.9 6.2-18 1.5-4.5 3.1-9 4.7-13.5.3-.8.7-1.6 1.1-2.3.4-.7.9-1.2 1.7-1.4.3-.1.5-.3.8-.4.7-.4 1.4-.2 1.5.5.1.5.3.9.6 1.2.2 1 .3 1.6.3 2.2zM723.4 79.2c.1-1.1.4-2.2 1.1-3.1.6-.8 1.2-1.7 1.8-2.5 1.9-2.2 3.7-4.5 5.7-6.6 2-2.3 3.9-4.7 5.8-7.2 1.2-1.5 2.5-3 3.7-4.6.8-1 1.6-2 2.3-3 1.4-1.9 2.8-3.7 4.5-5.2 1.1-1 2-2.2 2.8-3.4 1.9-2.8 4-5.4 6.2-8 1.1-1.3 2.4-2.4 3.7-3.4 1-.7 1.7-1.6 2.4-2.5l2.4-3.3c.7-.9 1.6-1.7 2.6-2.3.4-.3.9-.5 1.4-.6.7-.2 1.4.2 1.7.9.1.3.2.7.3 1 .1.4.1.8-.1 1.1-.3.5-.6 1.1-1 1.5-.9 1.1-1.8 2.1-2.8 3.1-3.3 3.2-6.3 6.6-9.1 10.2-.6.8-1.2 1.5-1.9 2.2-2.6 2.6-4.9 5.4-7.1 8.3-1.1 1.4-2.2 2.8-3.4 4.1-6.9 7.5-13.8 15-20.2 22.9-.4.5-.8.9-1.2 1.4-.3.3-.6.3-1 .2-.4-.4-.6-.8-.6-1.2zM480.1 98c0 .8-.8 1.4-1.4 1-.2-.1-.4-.3-.6-.4-3.6-3-7.2-5.9-10.8-9-2.2-1.9-4.3-4-6.4-6.1-2.1-2.1-4.3-4.1-6.7-5.9-1-.7-1.9-1.6-2.8-2.5-1.1-1.1-2.3-2-3.7-2.7-4.3-2.4-8.3-5.2-11.9-8.6-.6-.6-1.3-1.2-2-1.7-2.6-2.1-5.1-4.5-7.4-6.9-1.2-1.2-2.3-2.6-3.5-3.9l-.6-.9c-.2-.3-.1-.7.1-1 .3-.3.6-.5 1-.4.2.1.5.2.7.3.2.1.4.2.6.2.6-.1 1.1.2 1.5.6l2.2 2.2c.8.8 1.6 1.5 2.5 2.1 1 .7 1.8 1.4 2.8 2.2 1.4 1.1 2.9 2.2 4.3 3.3 2.3 1.8 4.7 3.5 7 5.4 2.7 2.2 5.4 4.3 8.2 6.4 2.7 2 5.3 4.2 7.9 6.4 1.3 1.2 2.6 2.3 3.7 3.6 4.4 5 9.2 9.7 13.9 14.5l1.1 1.1c.2.3.3.6.3.7zM663.9 123.9c-.7-.3-1.2-.6-1.8-.8-.1 0-.1-.1-.2-.3.1-.2.2-.5.3-.8l3.3-6.3 3.9-6.9c2.7-4.5 5.3-9 8-13.6 1.9-3.3 3.8-6.6 5.8-9.9 1.5-2.6 2.9-5.3 4.2-8.1 1.3-3 2.8-5.9 4.2-8.8.4-.8.8-1.6 1.3-2.4 1.3-2.2 2.5-4.4 3.8-6.6.3-.5.6-1 .9-1.4.4-.5.9-1 1.5-1.2.8-.3 1.5-.2 2 .4.5.6.6 1.5.2 2.1-.6.7-.8 1.4-1.1 2.2-1.1 2.6-2.6 5-4.1 7.4-3.9 6.3-7.7 12.7-11.3 19.1-1.5 2.6-3.1 5.2-4.6 7.8-1.5 2.6-2.9 5.2-4.3 7.8-3.5 6.5-7.4 12.9-11.3 19.1-.2.4-.5.7-.7 1.2zM636.4 18.8c-.2 1.9-.4 3.9-.5 5.8-.3 3.8-1 7.5-1.6 11.2-.6 4.2-1.2 8.5-1.7 12.8-.3 2.5-.6 4.9-1 7.3-.2 1.3-.6 2.5-.9 3.8-.1.4-.3.8-.5 1-.4.4-.5.8-.5 1.3v1.2c0 .4-.3.6-.7.7-.4.1-.8 0-1-.4-.2-.3-.3-.7-.3-1.1v-2.2c.2-2.3.5-4.6.8-6.8.3-2.6.6-5.2.9-7.7.3-2.8.7-5.6 1-8.4.1-.8.2-1.6-.1-2.4-.1-.2 0-.6.1-.9.4-1.1.4-2.3.4-3.5 0-2.4-.1-4.9 0-7.3.1-2.3.5-4.7 1-6.9.1-.5.3-.9.4-1.4.1-.3.2-.6.4-.8.4-.6.8-1 1.6-1s1.3.5 1.6 1.2c.2.6.4 1.2.4 1.8.1.9 0 1.8 0 2.7h.2zm-2.2-2.6c0-.1-.1-.1-.1-.2-.1.1-.2.1-.1.2 0 .1.1.2.2.2-.1 0 0-.1 0-.2zM502.6 148.2c-1 0-1.8-.2-2.5-.6-1.4-.8-2.7-1.5-4.1-2.2-5.6-2.8-11-6.1-16.2-9.5-2.3-1.5-4.7-2.9-7.2-4.1-4.1-2-8.2-4-12.3-5.9-1.4-.6-2.7-1.4-3.8-2.4l-.9-.9c-.3-.4-.5-.9-.2-1.5.3-.5.8-.7 1.3-.7.3 0 .6 0 .9.1 2.8.6 5.5 1.5 7.9 3.2 2.2 1.5 4.4 2.9 6.8 4.1 3.9 2.1 7.7 4.3 11.3 6.9 2.5 1.8 5.1 3.3 7.9 4.6 3.8 1.8 7.3 3.9 10.9 6 .7.4 1.3 1 1.7 1.7.3.5.1.9-.5 1.1-.5 0-.8 0-1 .1zM499.5 67.5c.3.1.8.2 1.3.4.6.3 1.2.6 1.6 1.1 1.5 1.4 2.9 2.9 4 4.6 2.2 3.3 4.5 6.5 6.5 9.9.2.3.4.7.6 1 1.8 2.4 3.5 4.7 5.3 7.1 2.2 2.8 4.3 5.6 6.5 8.5 1.3 1.7 2.6 3.4 4 5.1.3.4.7.8 1.1 1.1.7.6 1.3 1.3 1.6 2.2.2.4.4.9.6 1.3.2.5 0 1-.4 1.2-.4.2-.9.1-1.3-.3-1.9-2.8-4.2-5.3-6.2-8-1.5-2-3.1-3.8-4.9-5.6-1.2-1.2-2.4-2.5-3.4-3.9-2.1-3-4.4-5.7-6.8-8.4-1-1.1-1.8-2.3-2.7-3.5-1-1.4-2.1-2.8-3.1-4.1-.5-.6-1.1-1.1-1.7-1.6-1.6-1.4-2.9-3-3.9-4.8-.2-.3-.4-.7-.5-1.1-.1-1.3.5-2.2 1.8-2.2zM751.7 97.1c.9 0 1.6.7 1.4 1.6-.1.5-.3 1-.7 1.4-.6.7-1.2 1.4-1.9 2-2.9 2.4-5.7 4.8-8.5 7.2l-1.5 1.2c-1.9 1.4-3.8 2.8-5.8 4.3-3.3 2.5-6.5 4.9-9.7 7.4-2.3 1.8-4.5 3.6-6.8 5.5-.3.2-.5.5-.8.6-1.2.6-2 1.5-2.8 2.4-.1.2-.3.3-.5.4-.3.2-.7.2-1 0-.3-.2-.5-.6-.4-1 .1-.3.3-.6.5-.9.6-.6 1.2-1.3 1.8-1.9 2.2-2 4.5-3.9 6.8-5.9 1.6-1.4 3.2-2.9 4.8-4.3 2.4-2.2 4.8-4.2 7.4-6.1 2.2-1.6 4.3-3.4 6.2-5.3 3-3 6.3-5.4 9.7-7.9.5-.3 1.1-.7 1.8-.7zM530.2 141.1c-.2.3-.3.5-.4.7-.5.6-1.1.7-1.7.3-.4-.2-.8-.5-1.2-.8-3.7-2.9-7.3-5.8-11-8.7-4.1-3.3-8.1-6.6-12.3-9.6-.9-.7-1.7-1.5-2.5-2.2-.6-.6-1.1-1.3-1.4-2-.3-.7-.4-1.4.2-2 .6-.6 1.3-.5 2-.3.7.3 1.3.7 1.8 1.2.7.6 1.3 1.3 2 1.9 1 .9 1.9 1.8 2.9 2.6 5.1 4.1 10.3 8.2 15.5 12.3 1.4 1.1 2.6 2.3 3.9 3.4 1 .9 1.6 2 2.2 3.2zM717 160.7c.3.3.5.6.8.9 0 .1 0 .3-.1.4-.1.2-.2.5-.4.7-.4.8-1 1.3-1.8 1.6-6.2 3-12.3 5.9-18.5 8.9-4.8 2.3-9.5 4.6-14.3 6.9-.7.3-1.4.5-2.1.4-.4 0-.7-.2-.9-.6-.2-.4 0-.8.4-1.1.8-.6 1.7-1.1 2.5-1.6.5-.3 1-.6 1.3-1.1.1-.2.5-.4.8-.4.5-.1.8-.3 1.2-.5 3.6-2.1 7.3-4 11.1-5.7 5.7-2.6 11.4-5.3 17.1-8 .9-.5 1.9-.7 2.9-.8zM682 130.2c-1.5.1-1.9 0-2.9-.8.2-.2.3-.5.5-.7l3.3-3.9c1.6-1.9 3.2-3.8 4.8-5.6.5-.6 1-1.1 1.5-1.7 3.1-3.9 6.2-7.7 9.1-11.7 1-1.4 2.1-2.8 3.2-4.3.2-.2.4-.5.6-.7.8-1.2 2-1.4 3.3-1.2.6.1 1 .7.6 1.3-1.1 1.9-1.9 4-3.4 5.6-1 1.1-2 2.3-3 3.4-1.9 2.1-3.8 4.2-5.6 6.3-.6.6-1.1 1.3-1.7 1.9-3.1 3.2-6 6.6-8.8 10.1-.5.9-1 1.4-1.5 2zM506.8 149.1c.6-.4 1.2-.4 1.9 0 1 .7 2.1 1.3 3.1 2s2.1 1.3 3.3 1.8c3.3 1.4 6.4 3.1 9.5 4.8 5.9 3.3 11.8 6.6 17.6 10.1 1.5.9 3 1.8 4.6 2.4.5.2.9.6 1.2 1 .5.5.2 1.4-.6 1.5-.8.1-1.7.2-2.2-.7-.3-.4-.7-.6-1.1-.8-2.3-1.1-4.5-2.2-6.8-3.2-4.3-1.9-8.4-4.2-12.4-6.5-3.9-2.3-7.8-4.8-11.8-7.1-1-.6-2.1-1-3.2-1.5-.7-.3-1.4-.8-1.9-1.3-.7-.8-1.1-1.6-1.2-2.5zM623.1 118.7c-.5-.3-1.1-.6-1.6-.8-.3-.2-.5-.5-.5-.8 0-.2 0-.4.1-.6.7-6.2 1.3-12.4 2-18.6l1.5-14.1c0-.3.1-.7.3-1 .3-.5.9-.7 1.3-.3.6.4 1 1 1 1.7.1 1.3.1 2.6-.2 3.9-1 4.6-1.4 9.3-1.8 13.9-.1 1.8-.4 3.6-.5 5.4-.1 1.5-.3 2.9-.4 4.4-.1 1.7-.3 3.4-.4 5.1 0 .4-.1.8-.2 1.2 0 .2-.3.5-.6.6zM678.3 132.8v1.3c0 .4-.2.7-.4 1.1-3 3.8-5.7 7.7-8.9 11.3-.4.4-.7.9-1.1 1.3-.2.2-.5.5-.7.5-1.1.1-1.5 1-2 1.7v.1c-.2.9-1 1.1-1.7 1.5-.3.2-.7.1-.9-.2-.3-.3-.3-.6-.2-1 .1-.2.3-.4.4-.7.6-.8 1.1-1.6 1.7-2.4 1.2-1.6 2.4-3.3 3.7-4.9 1.8-2.3 3.6-4.5 5.5-6.8.2-.3.4-.5.7-.7.9-.7 1.9-1.4 2.8-2.1.3-.3.7-.4 1.1 0zM606.2 118.4c-1.2.5-1.3.5-2.5.3-.1-.4-.2-.8-.2-1.2-.8-5.8-1-11.7-1.1-17.6V99c0-.3.1-.5.2-.8.4-.9 1.4-1.1 2.1-.3.4.4.5 1 .6 1.6.1 1.6.3 3.2.4 4.8.1 2.3.1 4.5.1 6.8s.1 4.5.5 6.7c-.1.1-.1.3-.1.6zM532 143.5c.9-.6 1.7-.5 2.4-.1.2.1.4.3.6.5.8.7 1.7 1.4 2.5 2.1 2.4 2.1 4.9 4.2 7.5 6 .7.5 1.3 1 1.9 1.6 1.8 1.7 3.7 3.1 5.7 4.5.4.3.8.5 1.1.8.5.4.6 1 .2 1.4-.3.4-.8.5-1.3.2l-.9-.6c-1-.7-1.9-1.5-3.1-1.9-.3-.1-.5-.3-.7-.5-3.4-2.7-6.8-5.4-10.2-8-1.2-.9-2.3-1.8-3.5-2.7-1-.9-1.5-2.1-2.2-3.3zM485.9 101.4c.3.1.8.2 1.2.5.5.3.9.6 1.3 1 1.5 1.4 2.9 2.7 4.3 4.1.6.6 1.3 1.2 2 1.6.4.2.8.5 1.2.8.3.2.6.4.8.7.7.9.3 2.1-.7 2.4-.3.1-.6 0-.9-.1-3.4-1.5-6.4-3.6-9.3-5.9-.5-.4-.9-.8-1.3-1.2-.2-.2-.4-.4-.6-.7-.4-.7-.6-1.3-.2-2.1.3-.6 1.1-1 2.2-1.1zm.4 2.6c0-.2-.2-.5-.5-.5l-.1.2c.1.2.3.3.4.4 0 0 .1-.1.2-.1zM605.7 123.2c1.1 1 1.5 2.2 1.6 3.5.2 1.4.3 2.8.5 4.3.4 3.9.7 7.9 1 11.8.1.7-.1 1.4-.2 2-.1.4-.4.7-.8.7s-.8-.2-1-.7c-.1-.4-.2-.8-.2-1.1-.4-3.1-.7-6.2-1.1-9.3-.3-2.3-.6-4.6-.8-7-.1-1.2 0-2.3.5-3.4.1-.3.3-.5.5-.8zM570.4 123.1c.3-.6.3-1.3.1-2-.2-.6 0-1.3.3-1.9.1-.2.5-.3.7-.1.1.2.3.4.4.7.5 1.2 1.1 2.3 1.6 3.5 1.9 5 4.2 9.7 6.6 14.4.2.3.4.7.5 1.1.2.5 0 1-.5 1.2-.4.2-.9 0-1.2-.4-.2-.3-.4-.7-.6-1-.7-1.3-1.3-2.6-2.2-3.8-.5-.6-.9-1.4-1.2-2.1-1.3-2.7-2.7-5.3-3.8-8.1-.2-.5-.5-1-.7-1.5zM604.7 81.8c-.1 1.5-.3 2.9-.3 4.2 0 .8-.4 1.5-.8 2.1-.3.5-1.1.5-1.4 0-.2-.3-.3-.6-.4-1-.2-1.1-.3-2.2-.4-3.4-.2-2.1-.3-4.2-.1-6.4.1-.5.1-.9.2-1.4.1-.3.2-.6.4-.8.3-.5.7-.8 1.3-.8.6 0 1 .4 1.3.9.4.9.5 1.8.5 2.8-.1 1.5-.2 2.7-.3 3.8zM719.4 85.2c-.1.2-.2.6-.3.9-.4.6-.7 1.3-1.2 1.9-1.6 1.9-3.2 3.9-4.8 5.8-.3.4-.7.7-1.1.9-.5.3-1 .3-1.4 0-1.1-.8-1.2-1.2-.5-2.3.2-.3.3-.5.5-.7 1.6-1.9 3.1-3.8 4.7-5.7.5-.6 1.2-1.1 1.9-1.6.3-.2.6-.3.9-.4.7-.2 1.3.3 1.3 1.2zM657.3 130.8c.9 0 1.6-.6 2.5 0 0 .3-.2.6-.4.9-1.4 2.5-2.9 5-4.3 7.5-.7 1.3-1.4 2.7-2.1 4-.1.2-.2.5-.4.7-.3.5-.7.9-1 1.3-.2.2-.3.4-.5.6-.3.2-.7.2-1 0-.3-.2-.4-.5-.4-.8.1-.3.2-.7.3-1 .5-1 1.1-2 1.7-2.9.2-.4.5-.8.5-1.3 0-.3.2-.7.4-1 1.4-2.5 2.9-5 4.3-7.5.1-.1.2-.2.4-.5zM618.8 136.7c.2-2 .4-3.9.6-5.7.2-1.5.3-3 .5-4.5 0-.4.1-.9.2-1.3.2-.5.4-1 .6-1.4.2-.3.6-.4.9-.1l.3.3c.4 1 1 1.9.8 3.1-.3 1.8-.5 3.6-.7 5.4-.3 1.8-1 3.4-1.7 5.1-.1.2-.3.5-.6.5s-.7-.2-.8-.5c-.1-.4-.1-.8-.1-.9zM628.7 70.8c-.2 1.2-.4 2.5-.7 3.7-.2 1.1-.6 2.2-.6 3.3 0 .7-.5 1-1.1 1-.6 0-.9-.4-1-1v-.4c.1-1.7.3-3.5.4-5.2l.3-1.8c.1-.3.2-.7.4-1 .2-.4.6-.6 1.1-.6.5.1.9.4 1 .9.1.4.1.7.2 1.1z"/><path class="st0" d="M388.7 125.1c0 .2 0 .2-.1.3-.1.1-.2.3-.3.4-.7-.2-1-.6-1.2-1.2 0-.1 0-.4.1-.4.1-.1.4-.1.5 0 .3.3.7.6 1 .9zM634.2 16.2c0 .1-.1.1-.1.2l-.2-.2s.1-.1.1-.2c.1.1.1.2.2.2zM486.3 104c-.1 0-.1.1-.1.1-.2-.1-.3-.3-.4-.4l.1-.2c.1 0 .4.3.4.5z"/><g><path class="st1" d="M166.2 203.1c-13.5 16.1-21.7 27.7-24.6 34.6-4.5 9.3-6.8 16.2-6.8 20.8 0 5.7 2 9.5 6.1 11.4 2.6 1.2 11.9 5.3 30.1-2.8 1.2-.7 1.9-1.1 2-1.2l-2.1.1c-3.6-.3-5.3-1.1-5.3-2.4v-.2c0-2.8 1.7-6 5.1-9.6.7-.6 1.6-1 2.7-1.3 3.7 1.4 5.6 4.5 5.6 9.3 0 5.2-4.1 9.3-12.1 12.4-16.1 6.8-34.8 6.1-41.9-8.9-1.8-3.9-2.5-8.7-2.5-11.3v-1.5c0-7 3-16.3 9-27.9h-.1c3.8-5.9 6-9.3 6.5-10.3 3-5 7.3-11.2 12.9-18.6l2.6-3.3c5.6-7.6 12.5-16 20.8-25.3 10.9-11.2 17.3-17.3 19.4-18.2 3.6-2.7 6.6-3.9 8.9-3.9l.6-.1c3 .1 5 1.8 5.9 5.2l.2.8c0 1.7.4 6.1-1.5 8.2-1.9 2.1-3.4 3.3-6.1 5.9-2.6 2.6-17.2 17.4-23.7 25.1l-8.8 10.1-2.9 2.9z"/><path class="st1" d="M224 176.3c-28.5-5.5-56.7-10.1-84.7-13.9-29.5-3.5-60-5.8-91.5-7.1v.1c-1 7.1-4.2 12.8-9.6 17.2-3 2.2-5.8 3.6-8.4 4.4-9.7 2.7-18.7-.3-27-8.9-1.1-1.7-1.8-3.1-2.2-4.3-1.1-3.9 0-7.1 3.2-9.7 1.5-.7 2.9-1.3 4.3-1.8 5.1-1.4 14.4-2.1 28-2 .9-1.6 1.6-2.5 2.1-2.7l.4-.1c.6-.2 1.4 0 2.7.5l-.3-.7c-.4-1.8-.3-2.8.1-3 3.5 1.2 5.6 3 6.2 5.3v.1l.1.9c20.2.6 41.1 2 62.8 4.3 32.2 3.1 65.9 8.1 101.1 15.1 9.2 1.7 13.9 2.5 14.2 2.4l17.4 3.1c40.6 5.9 69.6 6.4 87.2 1.5 16.6-4.7 25.6-13.2 27-25.5.4-3.5 0-7.3-1.1-11.4l-.2-.7c-.1-.1-.1-.1.1-.1l-.3-.2-.2-.7c-1-3.5-2.9-8-5.8-13.3l-.2-.3c-.5-2.1-.1-3.6 1.3-4.3l.6-.1c2.8-.8 6 2.1 9.7 8.7 1.1 2.6 1.8 4.3 2.1 5.1 2.3 8.4 1.5 16.9-2.5 25.5-6.1 10.7-15.7 18-28.9 21.7-19.7 5.5-49.9 5-90.8-1.8l-16.9-3.3zM15.1 155.9l.1.2c4.8.7 7.4 1 7.6 1 5.2-.2 8.3-.3 9.2-.5 1.2-.8 1.8-1.3 1.7-1.6v-.1c-9.4-.1-15.4.2-18.2 1h-.4zM244.2 218.5c5 0 9.8 2.2 14.4 6.6l1 1.7v-1.1h.4v2.4h-.4v-.7l-2.6 3.5 1.2-.1h.1c2.2 0 4.7 2.8 7.5 8.4.7 2.2 1.1 4.2 1.1 6v1.2c0 7.2-4.9 13.9-14.6 19.9-4.7 2.9-9.8 5.3-15.1 7.2-12.2 4.2-22 6.2-29.4 6.2-7.7 0-13.3-2.2-16.7-6.5-1.2-1.8-1.9-3.9-1.9-6.1 0-10.9 12.1-24.7 36.4-41.4 7.6-4.8 13.8-7.2 18.6-7.2zm-42.9 52.8c1.5 2.1 4.4 3.1 8.7 3.1h.5c8.1 0 19-2.7 32.7-8 10.9-5.3 16.4-10.6 16.4-15.9 0-2-2.1-3.7-6.2-5.2-2.6-1.3-3.9-2.4-3.9-3.1 0-1.7 1-4.1 3.1-7.1h-.2c-1.9 1.8-5.4 3.4-10.4 4.6-4.3 1.7-11.2 5.8-20.6 12.4-4.5 3.1-10.1 8.1-16.7 15.1-2.3 2.4-3.4 3.8-3.4 4.1z"/><path class="st1" d="M335.9 211.5h1c2.5 0 4.6 2.6 6.2 7.7v1.4c-.4 4.2-3.5 10.8-9.2 20-5 6.1-9.8 10.6-14.4 13.6-2.3 1.6-3.6 2.4-3.7 2.4v.2c7.5.5 14.2.7 20 .7 10.7 0 21.5-1.5 32.6-4.6h1.5c1.1.1 1.6.6 1.6 1.5 0 3.2-8.8 5.7-26.4 7.5-5.8.3-10.4.5-13.7.5-6.6 0-14.5-.5-23.9-1.5-5.4 2.2-10.5 3.2-15.4 3.2h-.2c-4.2 0-12.7-1.8-25.2-5.5-1.1-.8-1.6-1.9-1.6-3.1-.2 0-.2.1-.2.2-1.6 0-2.4-1.2-2.4-3.6v-1c0-1.6.6-4.7 1.7-9.4l2.5-4.2c.4-.2.7-.2 1-.2 5.9 1.3 9.2 2 9.7 2 9.9-3.2 20-7.2 30.4-11.9 6.7-3.2 15.1-8.3 25.4-15.1 1.2-.5 2.1-.8 2.7-.8zM286 241.2v.2c6.8 1.3 10.8 2 12 2 6.5 0 13.6-3.3 21.2-10 3.6-3.9 6.2-7.7 7.9-11.5-10.1 5.7-20.1 10.6-30 14.9-4.1 1.9-7.8 3.3-11.1 4.4z"/><path class="st1" d="M405.3 189.8c5.9.6 8.9 3.3 8.9 8.2v1.7c0 1.2-.4 2.8-1.1 4.9h-.4v-4c-4.8 3.2-7.2 5.4-7.2 6.7l.2.9c-7 6.1-11.5 10.8-13.6 14.2-3.3 4.9-5.9 9.5-7.6 13.6-4.2 9.7-6.2 15.6-6.2 17.9v.4c.7 2.5 2.6 3.7 5.6 3.7.1 0 .5.1 1.2.2 5.5 0 19.2-2.8 41.1-8.4 10.2-2.5 20.6-4.6 31.4-6.4h1.7c1.7.1 2.5.4 2.5 1v.1c0 2.2-6.9 4.4-20.6 6.6-24.7 6.1-42.6 10-53.9 11.7-1.7.1-3.1.1-4.2.1h-1c-5.5 0-10-1.8-13.4-5.5-1.5-2-2.2-4.7-2.2-8V247c0-10.5 3.9-22.7 11.7-36.6 9.7-13.6 18.7-20.6 27.1-20.6z"/><path class="st1" d="M511.3 203.7h2.1c5.2 0 8.6 1.5 10 4.4.4.7.6 1.6.6 2.6h.2c3.6 0 6 1.7 7.4 5.1 1.2 1.7 1.7 3.3 1.7 4.9 0 2.3-2.8 6.4-8.4 12.2-3.9 5.7-7.2 11.7-10 18-2.3 5.9-3.5 10-3.5 12.4.3 2.4 1.4 3.6 3.2 3.6h.3c5.2 0 17.5-6.5 36.9-19.6 1.2-.4 1.9-.6 2.1-.6.6 0 1 .3 1.2.9v.7c0 2.2-5.4 6.5-16.2 13-11.2 7-19.8 10.5-25.7 10.5h-.4c-6.1 0-10.3-2.4-12.6-7.2-.7-2-1-4-1-6.1 0-6.2 2.2-14.4 6.5-24.4h-.1c-23.2 13.7-39.8 21-50 21.6h-2.4c-5.5 0-8.7-2.3-9.7-7-.2-.9-.2-1.6-.2-2.1 0-7.5 9-16.9 27-28.2 16.6-9.8 30.3-14.7 41-14.7zm-53.7 46c-.2 0-.8-.1-1.9-.4-.2.1-.4.1-.5.1v.2c1.2.2 2.3.4 3.1.4h.7c6.3 0 22-7.2 46.9-21.5l4.1-2.7v-.1c-5.7.9-10.5 2-14.4 3.2-7 2.6-13.4 5.6-19.2 9l-16.1 10.5c-1.1.9-2.1 1.3-2.7 1.3zM613.9 181.2c3.1 0 4.8 2.1 5.2 6.4v.2c0 3-2.3 7.4-6.9 13.2 0 .2-5 7.3-15 21.5-1.2 1.7-3.3 5-6.2 9.7v.2h.1c15.8-12.7 29.2-21.1 40.1-25 4.3-1.8 7.9-2.7 10.6-2.7 5.1 0 7.6 2.8 7.6 8.5 0 5.1-3.8 14.6-11.4 28.6-3.3 6.6-6.1 13.2-8.4 20l-.2 1.6c0 1.2.9 2 2.7 2.1h1.5c4.2 0 10.1-2 17.7-6.1h.7c1.1 0 1.7.7 1.7 2 0 3-6 6.2-18.1 9.5-3.3.6-5.8.9-7.4.9-4.8 0-8.2-2.9-10.1-8.7-.4-1.4-.6-2.9-.6-4.5v-1.1c0-8.2 5.8-21.8 17.4-41 2.7-3.6 5.6-6.4 8.5-8.4v-.1h-.1c-15 4.5-30.7 13.6-47 27.2l-15.4 13c-4.3 7.2-6.9 11-7.6 11.5h-.7c-1.6 0-3.5-1.4-5.9-4.1h-1.5c-3.4 0-5.1-.8-5.1-2.5 0-1.4 2.9-6.3 8.6-14.7 2.9-4.6 7-11.5 12.2-20.9l13.4-19.6h-.1c-8.7 6.4-23.2 17.3-43.6 32.6l12.6-14.2c6.3-4.6 15.1-11.6 26.4-21 4.5-3.6 9.2-6.8 14-9.7 2.2-2.4 4.7-3.6 7.4-3.6.9-.4 1.8-.7 2.9-.8z"/><path class="st1" d="M717.4 203.7h2.1c5.2 0 8.6 1.5 10 4.4.4.7.6 1.6.6 2.6h.2c3.6 0 6 1.7 7.4 5.1 1.2 1.7 1.7 3.3 1.7 4.9 0 2.3-2.8 6.4-8.4 12.2-3.9 5.7-7.2 11.7-10 18-2.3 5.9-3.5 10-3.5 12.4.3 2.4 1.4 3.6 3.2 3.6h.2c5.2 0 17.5-6.5 36.9-19.6 1.2-.4 1.9-.6 2.1-.6.6 0 1 .3 1.2.9v.7c0 2.2-5.4 6.5-16.2 13-11.2 7-19.8 10.5-25.7 10.5h-.2c-6.1 0-10.3-2.4-12.6-7.2-.7-2-1-4-1-6.1 0-6.2 2.2-14.4 6.5-24.4h-.1c-23.2 13.7-39.8 21-50 21.6h-2.4c-5.5 0-8.7-2.3-9.7-7-.2-.9-.2-1.6-.2-2.1 0-7.5 9-16.9 27-28.2 16.5-9.8 30.2-14.7 40.9-14.7zm-53.7 46c-.2 0-.8-.1-1.9-.4-.2.1-.4.1-.5.1v.2c1.2.2 2.3.4 3.1.4h.7c6.3 0 22-7.2 46.9-21.5l4.1-2.7v-.1c-5.7.9-10.5 2-14.4 3.2-7 2.6-13.4 5.6-19.2 9l-16.1 10.5c-1.2.9-2.1 1.3-2.7 1.3zM899.3 163.6c3-.2 5 1.9 6.1 6.4.1.1.2.6.2 1.6l.1 1.2c.4 5.2-2.8 15.8-9.3 32l-8.5 21.1c13.7-15.5 23.1-25.3 28.2-29.6 13.6-13 23-19.7 28.3-20.1l.7-.1c2.8-.2 4.9 1.3 6.3 4.6.5 1.6.8 3.1.9 4.3.4 5.3-1.7 12.8-6.1 22.3 9.4-8.5 15.6-12.8 18.4-13l1-.1c2.7-.2 4.6 2 5.5 6.5l.1 1.7c.5 6.7-4.2 22.8-14 48.3-3 8.1-6.1 18.5-9.3 31.4-.1.9-.1 1.6-.1 1.9.1 2 1.2 2.9 3.2 2.8l.9-.1c2.2-.1 7.5-2.1 16.1-5.9l.9-.1c1.1.1 1.7.6 1.7 1.6.2 2.7-5.8 5.9-17.9 9.6-2.6.3-4.6.6-5.7.6-4.7.3-8.1-2.2-10.4-7.6-.6-1.8-1-3.6-1.1-5.4-.6-8.4 4.1-25 13.9-49.8 4.9-10.4 10.6-21.1 17.2-32.1v-.2h-.2c-6 3.8-14.7 11.6-26 23.4-3.4 3.8-5.5 7-6.4 9.5-3.9 6.7-6.2 10.4-6.9 11-.7.5-1.5.7-2.2.8-.8.1-2.5-.4-5.1-1.3h-.4c-.3 0-.6.1-.7.3-3.5-.3-5.4-1.5-5.5-3.6-.2-2.3 2.5-7.9 8-16.6 9.7-17.3 16-28.2 19.1-32.9 3.7-4.8 5.7-7.7 6.2-8.6h-.1c-4.7.3-17.2 10.6-37.4 30.9-7.4 7.7-14.8 15.6-22.3 23.7-2.6 2.7-4.8 4.1-6.6 4.2-2.4.2-4.3-1.9-5.7-6.3-.2-.6-.3-1.2-.4-2l-.1-.9c-.6-8.7 5.7-25.9 18.8-51.6 1.8-3.1 4.1-6.8 7-11h-.1c-2.6 1.4-7.6 6.2-14.9 14.4-11.8 14.3-20.7 27-26.6 37.9-6.6 11.7-10.6 18.5-11.9 20.4l-3.2 4.4-.3-.4-.3-4.1c-.4 0-.6-.2-.7-.6 0-6 4.8-16.2 14.3-30.4 6.6-10 13-18.9 19.2-26.7 7.4-8.2 13.7-13.6 18.9-16.3 2.1-.7 3.8-1.3 5.2-1.4z"/><path class="st1" d="M1012.1 210.1l1.1-.1c4-.3 6.4 2.1 7.4 7.1.1 1-.3 1.9-1.1 2.6.3 1.3.5 2.1.5 2.3.2 3-3.4 7.1-10.9 12.4-8.2 7.6-15.5 16.2-22 25.8-2.4 4.3-4.4 6.6-6.2 6.7h-.2v.1c1.8.1 3.2.2 4.4.1 2.5-.2 11.3-2.2 26.4-6.2 1.8 0 2.8.5 2.9 1.7.1 2.1-5.6 4.3-17.1 6.7-8.3 2.3-13.4 3.5-15.4 3.7l-2.1.1c-5 .3-8.2-1.8-9.7-6.4-.1-.6-.2-1.2-.3-2l7.7-19.8c1.5-3.4 6.3-9.7 14.2-19 9.3-9.8 14.9-14.8 16.8-14.9 1-.4 2.2-.8 3.6-.9zM1048.7 188.8c-4.2 5-12.3 13.6-14 13.7-.2.1-.5.2-.9.2h-1.8c-1.5.7-2.8 1.1-3.9 1.1l-1.4.1c-2.7-.2-4.1-1.4-4.3-3.6.6-4.1 2.6-8.7 6-13.7 3.7-4.4 6.8-7.3 9.2-8.5 5.3-3.5 9.5-5.4 12.6-5.7h.4c1.2-.1 2.7.3 3.5 1.6 2.9 4.8-1.2 9.8-5.4 14.8zM1090.8 203.7h2.1c5.2 0 8.6 1.5 10 4.4.4.7.6 1.6.6 2.6h.3c3.6 0 6 1.7 7.4 5.1 1.2 1.7 1.7 3.3 1.7 4.9 0 2.3-2.8 6.4-8.4 12.2-3.9 5.7-7.2 11.7-10 18-2.3 5.9-3.5 10-3.5 12.4.3 2.4 1.4 3.6 3.2 3.6h.2c5.2 0 17.5-6.5 36.9-19.6 1.2-.4 1.9-.6 2.1-.6.6 0 1 .3 1.2.9v.7c0 2.2-5.4 6.5-16.2 13-11.2 7-19.8 10.5-25.7 10.5h-.4c-6.1 0-10.3-2.4-12.6-7.2-.7-2-1-4-1-6.1 0-6.2 2.2-14.4 6.5-24.4h-.1c-23.2 13.7-39.8 21-50 21.6h-2.4c-5.5 0-8.7-2.3-9.7-7-.2-.9-.2-1.6-.2-2.1 0-7.5 9-16.9 27-28.2 16.6-9.8 30.3-14.7 41-14.7zm-53.7 46c-.2 0-.8-.1-1.9-.4-.3.1-.4.1-.5.1v.2c1.2.2 2.3.4 3.1.4h.7c6.3 0 22-7.2 46.9-21.5l4.1-2.7v-.1c-5.7.9-10.5 2-14.4 3.2-7 2.6-13.4 5.6-19.2 9l-16.1 10.5c-1.1.9-2 1.3-2.7 1.3z"/><g><path class="st1" d="M317.8 322.5c0 3.5-.1 5.7-.2 6.6-.3 2-.9 3.6-2.1 4.7-1.6 1.6-3.8 2.4-6.6 2.4s-5.1-.8-6.7-2.5c-1-1-1.7-2.4-2-4.1-.2-.9-.2-2.8-.2-5.6v-13.9h2.4v16.2c0 1.5.1 2.5.2 3.2.2 1.1.7 2 1.4 2.8 1.2 1.2 2.9 1.8 5 1.8 2 0 3.5-.6 4.6-1.7.8-.8 1.4-1.9 1.6-3.1.1-.8.2-2.7.2-5.6v-13.6h2.4v12.4zM337.6 335.8h-2.3V325c0-1.5 0-2.5-.1-3-.2-.9-.5-1.6-1-2.1-.7-.7-1.7-1-2.9-1s-2.4.3-3.8.9c-1 .4-1.6.7-1.8.9v15h-2.3v-18.4h2.2v1.3c1.9-1.2 3.9-1.8 6.1-1.8 1.8 0 3.2.5 4.3 1.5.8.8 1.3 1.7 1.5 2.9.1.7.2 1.8.2 3.3v11.3zM355.5 335.8h-2.1v-1.4l-1.8.9c-1.4.6-2.8.8-4.1.8-1.8 0-3.2-.5-4.3-1.6-1.1-1-1.6-2.4-1.6-4.1 0-4 3.5-6 10.6-6h1v-.7c0-1.9-.3-3.2-.9-3.9-.7-.7-1.9-1.1-3.5-1.1-1.7 0-3.4.5-5.1 1.5l-1-1.6c.3-.3.9-.6 1.8-1 1.4-.6 2.9-.9 4.5-.9 2.1 0 3.8.6 5 1.8.7.7 1.1 1.5 1.3 2.5.1.6.2 1.5.2 2.8v12zm-2.3-3.2v-6.2h-1c-5.5 0-8.2 1.4-8.2 4.2 0 1 .3 1.8 1 2.5s1.8 1.1 3.1 1.1c1.2-.1 2.9-.6 5.1-1.6zM372.1 337.9c0 2.4-.5 4.1-1.5 5.1s-2.3 1.5-4 1.5c-.9 0-1.7-.2-2.5-.5l.5-1.8c.7.2 1.3.3 2 .3 1.3 0 2.2-.4 2.6-1.3.4-.7.5-1.7.5-3v-20.8h2.3v20.5zm.4-26.8c0 .4-.1.8-.4 1.1-.3.3-.7.5-1.1.5-.4 0-.8-.2-1.1-.5-.3-.3-.5-.7-.5-1.1 0-.4.2-.8.5-1.1.3-.3.7-.4 1.1-.4.4 0 .8.1 1.1.4.2.3.4.7.4 1.1zM393.2 326.7c0 2.9-.8 5.2-2.3 6.9-1.5 1.7-3.6 2.6-6.2 2.6-2.5 0-4.5-.9-6-2.6-1.5-1.8-2.3-4.1-2.3-7 0-2.9.8-5.3 2.3-7 1.5-1.8 3.6-2.6 6.2-2.6 2.5 0 4.5.9 6 2.6 1.6 1.7 2.3 4.1 2.3 7.1zm-2.4 0c0-2.3-.6-4.1-1.7-5.6-1.1-1.4-2.6-2.2-4.3-2.2-1.8 0-3.3.7-4.4 2.1-1.1 1.4-1.6 3.2-1.6 5.5s.6 4.2 1.7 5.6c1.1 1.4 2.6 2.1 4.3 2.1 1.9 0 3.3-.7 4.4-2 1.1-1.4 1.6-3.2 1.6-5.5zM407.5 317.2l-.5 1.9c-.5-.1-1-.1-1.5-.1-1.1 0-2.2.3-3.1.8-.7.4-1.3.9-1.8 1.5-.2.3-.4.6-.7.9v13.6h-2.3v-18.4h2.2v2.4c1.6-1.9 3.6-2.9 5.8-2.9.6 0 1.3.1 1.9.3zM425.1 335.8h-2.3V325c0-1.5 0-2.5-.1-3-.2-.9-.5-1.6-1-2.1-.7-.7-1.7-1-2.9-1s-2.4.3-3.8.9c-1 .4-1.6.7-1.8.9v15h-2.3v-18.4h2.2v1.3c1.9-1.2 3.9-1.8 6.1-1.8 1.8 0 3.2.5 4.3 1.5.8.8 1.3 1.7 1.5 2.9.1.7.2 1.8.2 3.3v11.3zM443 335.8h-2.1v-1.4l-1.8.9c-1.4.6-2.8.8-4.1.8-1.8 0-3.2-.5-4.3-1.6-1.1-1-1.6-2.4-1.6-4.1 0-4 3.5-6 10.6-6h1v-.7c0-1.9-.3-3.2-.9-3.9-.7-.7-1.9-1.1-3.5-1.1-1.7 0-3.4.5-5.1 1.5l-1-1.6c.3-.3.9-.6 1.8-1 1.4-.6 2.9-.9 4.5-.9 2.1 0 3.8.6 5 1.8.7.7 1.1 1.5 1.3 2.5.1.6.2 1.5.2 2.8v12zm-2.3-3.2v-6.2h-1c-5.5 0-8.2 1.4-8.2 4.2 0 1 .3 1.8 1 2.5s1.8 1.1 3.1 1.1c1.2-.1 2.9-.6 5.1-1.6zM462.6 335.8h-2.1v-1.4c-1.5 1.2-3.3 1.8-5.4 1.8-2.4 0-4.4-.9-5.9-2.6-1.5-1.7-2.2-3.9-2.2-6.7 0-2.9.8-5.3 2.5-7.2 1.7-1.9 3.9-2.8 6.5-2.8 1.6 0 3 .3 4.2 1v-9.8h2.3v27.7zm-2.3-3.5v-12.2c-1.4-.8-2.8-1.2-4.2-1.2-2 0-3.6.7-4.8 2.2-1.2 1.5-1.8 3.4-1.8 5.8 0 2.1.6 3.9 1.7 5.2 1.1 1.3 2.5 2 4.3 2 1.4 0 3.1-.6 4.8-1.8zM480.7 335.8h-2.1v-1.4l-1.8.9c-1.4.6-2.8.8-4.1.8-1.8 0-3.2-.5-4.3-1.6-1.1-1-1.6-2.4-1.6-4.1 0-4 3.5-6 10.6-6h1v-.7c0-1.9-.3-3.2-.9-3.9-.7-.7-1.9-1.1-3.5-1.1-1.7 0-3.4.5-5.1 1.5l-1-1.6c.3-.3.9-.6 1.8-1 1.4-.6 2.9-.9 4.5-.9 2.1 0 3.8.6 5 1.8.7.7 1.1 1.5 1.3 2.5.1.6.2 1.5.2 2.8v12zm-2.3-3.2v-6.2h-1c-5.5 0-8.2 1.4-8.2 4.2 0 1 .3 1.8 1 2.5s1.8 1.1 3.1 1.1c1.2-.1 2.9-.6 5.1-1.6zM509.6 335.8h-2.1v-1.4c-1.5 1.2-3.3 1.8-5.4 1.8-2.4 0-4.4-.9-5.9-2.6-1.5-1.7-2.2-3.9-2.2-6.7 0-2.9.8-5.3 2.5-7.2 1.7-1.9 3.9-2.8 6.5-2.8 1.6 0 3 .3 4.2 1v-9.8h2.3v27.7zm-2.4-3.5v-12.2c-1.4-.8-2.8-1.2-4.2-1.2-2 0-3.6.7-4.8 2.2-1.2 1.5-1.8 3.4-1.8 5.8 0 2.1.6 3.9 1.7 5.2 1.1 1.3 2.5 2 4.3 2 1.5 0 3.1-.6 4.8-1.8zM529.6 325.8v1.2h-13.2c0 2.1.5 3.8 1.6 5.1 1.1 1.3 2.7 1.9 4.7 1.9 1.6 0 3.3-.5 5.3-1.5l1 1.8c-.2.2-.8.5-1.9 1-1.5.6-3.1.9-4.7.9-2.6 0-4.7-.9-6.2-2.6-1.5-1.7-2.3-4-2.3-6.9 0-3 .8-5.3 2.3-7.1 1.5-1.8 3.6-2.7 6.1-2.7 2.2 0 3.9.8 5.2 2.3 1.4 1.6 2.1 3.8 2.1 6.6zm-2.4-.7c0-1.6-.4-3-1.1-4.1-.9-1.4-2.2-2.1-3.8-2.1-1.6 0-3 .6-4.1 1.7-1.1 1.1-1.7 2.6-1.8 4.5h10.8zM557.8 325.8v1.2h-13.2c0 2.1.5 3.8 1.6 5.1 1.1 1.3 2.7 1.9 4.7 1.9 1.6 0 3.3-.5 5.3-1.5l1 1.8c-.2.2-.8.5-1.9 1-1.5.6-3.1.9-4.7.9-2.6 0-4.7-.9-6.2-2.6-1.5-1.7-2.3-4-2.3-6.9 0-3 .8-5.3 2.3-7.1 1.5-1.8 3.6-2.7 6.1-2.7 2.2 0 3.9.8 5.2 2.3 1.4 1.6 2.1 3.8 2.1 6.6zm-2.4-.7c0-1.6-.4-3-1.1-4.1-.9-1.4-2.2-2.1-3.8-2.1-1.6 0-3 .6-4.1 1.7-1.1 1.1-1.7 2.6-1.8 4.5h10.8zM576.3 335.8H574V325c0-1.5 0-2.5-.1-3-.2-.9-.5-1.6-1-2.1-.7-.7-1.7-1-2.9-1s-2.4.3-3.8.9c-1 .4-1.6.7-1.8.9v15h-2.3v-18.4h2.2v1.3c1.9-1.2 3.9-1.8 6.1-1.8 1.8 0 3.2.5 4.3 1.5.8.8 1.3 1.7 1.5 2.9.1.7.2 1.8.2 3.3v11.3zM595.4 334.3c-.2.3-.8.6-1.9 1-1.5.6-2.9.8-4.4.8-2.6 0-4.7-.8-6.3-2.5-1.6-1.7-2.4-3.9-2.4-6.7 0-3 .9-5.4 2.6-7.3 1.7-1.9 3.9-2.8 6.6-2.8 1.4 0 2.7.3 4 .8.8.4 1.3.7 1.6 1l-1 1.6c-1.5-.9-3-1.3-4.6-1.3-2 0-3.6.7-4.8 2.2-1.2 1.4-1.9 3.3-1.9 5.5s.6 4 1.8 5.4c1.2 1.4 2.7 2 4.6 2 1.6 0 3.3-.5 5.2-1.4l.9 1.7zM611.5 335.8h-2.1v-1.4l-1.8.9c-1.4.6-2.8.8-4.1.8-1.8 0-3.2-.5-4.3-1.6-1.1-1-1.6-2.4-1.6-4.1 0-4 3.5-6 10.6-6h1v-.7c0-1.9-.3-3.2-.9-3.9-.7-.7-1.9-1.1-3.5-1.1-1.7 0-3.4.5-5.1 1.5l-1-1.6c.3-.3.9-.6 1.8-1 1.4-.6 2.9-.9 4.5-.9 2.1 0 3.8.6 5 1.8.7.7 1.1 1.5 1.3 2.5.1.6.2 1.5.2 2.8v12zm-2.3-3.2v-6.2h-1c-5.5 0-8.2 1.4-8.2 4.2 0 1 .3 1.8 1 2.5s1.8 1.1 3.1 1.1c1.3-.1 3-.6 5.1-1.6zM630.8 335.8h-2.3V325c0-1.5 0-2.5-.1-3-.2-.9-.5-1.6-1-2.1-.7-.7-1.7-1-2.9-1s-2.4.3-3.8.9c-1 .4-1.6.7-1.8.9v15h-2.3v-18.4h2.2v1.3c1.9-1.2 3.9-1.8 6.1-1.8 1.8 0 3.2.5 4.3 1.5.8.8 1.3 1.7 1.5 2.9.1.7.2 1.8.2 3.3v11.3zM645.9 335.3c-1.2.6-2.4.9-3.6.9-1.7 0-2.9-.4-3.8-1.3-.5-.5-.8-1.1-.9-2-.1-.5-.2-1.5-.2-2.8v-10.9h-3.2v-1.9h3.2v-5.2h2.3v5.2h5.9v1.9h-5.9v10.4c0 1.7.1 2.7.3 3.2.4.8 1.2 1.3 2.6 1.3.6 0 1.2-.1 1.8-.3l.9-.3.6 1.8zM665.1 326.7c0 2.9-.8 5.2-2.3 6.9-1.5 1.7-3.6 2.6-6.2 2.6-2.5 0-4.5-.9-6-2.6-1.5-1.8-2.3-4.1-2.3-7 0-2.9.8-5.3 2.3-7 1.5-1.8 3.6-2.6 6.2-2.6 2.5 0 4.5.9 6 2.6 1.6 1.7 2.3 4.1 2.3 7.1zm-2.3 0c0-2.3-.6-4.1-1.7-5.6-1.1-1.4-2.6-2.2-4.3-2.2-1.8 0-3.3.7-4.4 2.1-1.1 1.4-1.6 3.2-1.6 5.5s.6 4.2 1.7 5.6c1.1 1.4 2.6 2.1 4.3 2.1 1.9 0 3.3-.7 4.4-2 1-1.4 1.6-3.2 1.6-5.5zM672.6 333.1c0 2.8-1.1 5.4-3.4 7.6l-1.5-1.1c1.4-1.9 2.1-4.1 2.1-6.3v-.4h2.8v.2zM701.4 335.8h-2.3V325c0-1.5 0-2.5-.1-3-.2-.9-.5-1.6-1-2.1-.7-.7-1.7-1-2.9-1s-2.4.3-3.8.9c-1 .4-1.6.7-1.8.9v15h-2.3v-27.6h2.3v10.5c.2-.2.8-.5 1.8-1 1.4-.5 2.8-.8 4-.8 1.9 0 3.3.5 4.2 1.4.8.8 1.4 1.8 1.6 3 .1.6.2 1.8.2 3.4v11.2zM709.2 311.1c0 .4-.1.8-.4 1.1-.3.3-.7.5-1.1.5-.4 0-.8-.2-1.1-.5s-.5-.7-.5-1.1c0-.4.2-.8.5-1.1.3-.3.7-.4 1.1-.4.4 0 .8.1 1.1.4.2.3.4.7.4 1.1zm-.4 24.7h-2.3v-18.4h2.3v18.4zM725.5 330.8c0 1.7-.6 3.1-1.8 4-1.2 1-2.8 1.5-4.9 1.5-1.5 0-2.9-.3-4.3-.8-1-.4-1.6-.7-1.8-1l1-1.8c1.5 1 3.2 1.5 5 1.5 1.4 0 2.5-.3 3.2-.9.8-.6 1.2-1.4 1.2-2.4 0-1.1-.5-2-1.6-2.6-.4-.2-1.4-.7-3-1.3-1.8-.7-3-1.3-3.6-1.8-1-.8-1.5-2-1.5-3.5s.6-2.6 1.7-3.5c1.2-.9 2.6-1.3 4.4-1.3 1.4 0 2.7.3 4 .8.8.3 1.4.6 1.6.9l-.9 1.7c-1.5-.9-3-1.3-4.5-1.3-1.1 0-2 .3-2.8.8-.8.5-1.1 1.2-1.1 2 0 .9.4 1.7 1.2 2.2.3.2 1.3.7 2.8 1.3 1.9.8 3.2 1.4 3.8 1.8 1.3.8 1.9 2.1 1.9 3.7zM739.8 335.3c-1.2.6-2.4.9-3.6.9-1.7 0-2.9-.4-3.8-1.3-.5-.5-.8-1.1-.9-2-.1-.5-.2-1.5-.2-2.8v-10.9h-3.2v-1.9h3.2v-5.2h2.3v5.2h5.9v1.9h-5.9v10.4c0 1.7.1 2.7.3 3.2.4.8 1.2 1.3 2.6 1.3.6 0 1.2-.1 1.8-.3l.9-.3.6 1.8zM759.1 326.7c0 2.9-.8 5.2-2.3 6.9-1.5 1.7-3.6 2.6-6.2 2.6-2.5 0-4.5-.9-6-2.6-1.5-1.8-2.3-4.1-2.3-7 0-2.9.8-5.3 2.3-7 1.5-1.8 3.6-2.6 6.2-2.6 2.5 0 4.5.9 6 2.6 1.6 1.7 2.3 4.1 2.3 7.1zm-2.4 0c0-2.3-.6-4.1-1.7-5.6-1.1-1.4-2.6-2.2-4.3-2.2-1.8 0-3.3.7-4.4 2.1-1.1 1.4-1.6 3.2-1.6 5.5s.6 4.2 1.7 5.6c1.1 1.4 2.6 2.1 4.3 2.1 1.9 0 3.3-.7 4.4-2 1.1-1.4 1.6-3.2 1.6-5.5zM773.4 317.2l-.5 1.9c-.5-.1-1-.1-1.5-.1-1.1 0-2.2.3-3.1.8-.7.4-1.3.9-1.8 1.5-.2.3-.4.6-.7.9v13.6h-2.3v-18.4h2.2v2.4c1.6-1.9 3.6-2.9 5.8-2.9.6 0 1.3.1 1.9.3zM779.5 311.1c0 .4-.1.8-.4 1.1-.3.3-.7.5-1.1.5-.4 0-.8-.2-1.1-.5s-.5-.7-.5-1.1c0-.4.2-.8.5-1.1.3-.3.7-.4 1.1-.4.4 0 .8.1 1.1.4.3.3.4.7.4 1.1zm-.3 24.7h-2.3v-18.4h2.3v18.4zM797.2 335.8h-2.1v-1.4l-1.8.9c-1.4.6-2.8.8-4.1.8-1.8 0-3.2-.5-4.3-1.6-1.1-1-1.6-2.4-1.6-4.1 0-4 3.5-6 10.6-6h1v-.7c0-1.9-.3-3.2-.9-3.9-.7-.7-1.9-1.1-3.5-1.1-1.7 0-3.4.5-5.1 1.5l-1-1.6c.3-.3.9-.6 1.8-1 1.4-.6 2.9-.9 4.5-.9 2.1 0 3.8.6 5 1.8.7.7 1.1 1.5 1.3 2.5.1.6.2 1.5.2 2.8v12zm-2.3-3.2v-6.2h-1c-5.5 0-8.2 1.4-8.2 4.2 0 1 .3 1.8 1 2.5s1.8 1.1 3.1 1.1c1.3-.1 3-.6 5.1-1.6zM826.5 317.4l-7.3 19.7c-1 2.6-2 4.5-3.2 5.7-1.2 1.1-2.7 1.7-4.6 1.7-.9 0-2-.2-3.3-.7l.6-1.9c1.1.3 1.9.5 2.6.5 1.3 0 2.3-.4 3.1-1.1.8-.8 1.7-2.4 2.7-5l-7.6-18.9h2.5l6.3 15.9 5.7-15.9h2.5zM850.7 330.8c0 1.7-.6 3.1-1.8 4-1.2 1-2.8 1.5-4.9 1.5-1.5 0-2.9-.3-4.3-.8-1-.4-1.6-.7-1.8-1l1-1.8c1.5 1 3.2 1.5 5 1.5 1.4 0 2.5-.3 3.2-.9.8-.6 1.2-1.4 1.2-2.4 0-1.1-.5-2-1.6-2.6-.4-.2-1.4-.7-3-1.3-1.8-.7-3-1.3-3.6-1.8-1-.8-1.5-2-1.5-3.5s.6-2.6 1.7-3.5c1.2-.9 2.6-1.3 4.4-1.3 1.4 0 2.7.3 4 .8.8.3 1.4.6 1.6.9l-.9 1.7c-1.5-.9-3-1.3-4.5-1.3-1.1 0-2 .3-2.8.8-.8.5-1.1 1.2-1.1 2 0 .9.4 1.7 1.2 2.2.3.2 1.3.7 2.8 1.3 1.9.8 3.2 1.4 3.8 1.8 1.2.8 1.9 2.1 1.9 3.7zM868 335.8h-2.1v-1.4l-1.8.9c-1.4.6-2.8.8-4.1.8-1.8 0-3.2-.5-4.3-1.6-1.1-1-1.6-2.4-1.6-4.1 0-4 3.5-6 10.6-6h1v-.7c0-1.9-.3-3.2-.9-3.9-.7-.7-1.9-1.1-3.5-1.1-1.7 0-3.4.5-5.1 1.5l-1-1.6c.3-.3.9-.6 1.8-1 1.4-.6 2.9-.9 4.5-.9 2.1 0 3.8.6 5 1.8.7.7 1.1 1.5 1.3 2.5.1.6.2 1.5.2 2.8v12zm-2.3-3.2v-6.2h-1c-5.5 0-8.2 1.4-8.2 4.2 0 1 .3 1.8 1 2.5s1.8 1.1 3.1 1.1c1.2-.1 2.9-.6 5.1-1.6zM888.7 326.3c0 2.9-.9 5.3-2.6 7.2-1.7 1.8-4 2.7-6.7 2.7-1.9 0-4-.4-6.2-1.2v-26.8h2.3v10.4c1.4-1.1 3.1-1.6 5.1-1.6 2.5 0 4.4.8 5.9 2.6s2.2 3.8 2.2 6.7zm-2.4 0c0-2.2-.5-4-1.6-5.4s-2.5-2-4.3-2c-1.6 0-3.2.6-4.9 1.8v12.7c1.5.4 2.8.7 4 .7 2.1 0 3.8-.7 5-2.1 1.2-1.4 1.8-3.3 1.8-5.7zM908.7 326.7c0 2.9-.8 5.2-2.3 6.9-1.5 1.7-3.6 2.6-6.2 2.6-2.5 0-4.5-.9-6-2.6-1.5-1.8-2.3-4.1-2.3-7 0-2.9.8-5.3 2.3-7 1.5-1.8 3.6-2.6 6.2-2.6 2.5 0 4.5.9 6 2.6 1.6 1.7 2.3 4.1 2.3 7.1zm-2.3 0c0-2.3-.6-4.1-1.7-5.6-1.1-1.4-2.6-2.2-4.3-2.2-1.8 0-3.3.7-4.4 2.1-1.1 1.4-1.6 3.2-1.6 5.5s.6 4.2 1.7 5.6c1.1 1.4 2.6 2.1 4.3 2.1 1.9 0 3.3-.7 4.4-2 1-1.4 1.6-3.2 1.6-5.5zM923 317.2l-.5 1.9c-.5-.1-1-.1-1.5-.1-1.1 0-2.2.3-3.1.8-.7.4-1.3.9-1.8 1.5-.2.3-.4.6-.7.9v13.6h-2.3v-18.4h2.2v2.4c1.6-1.9 3.6-2.9 5.8-2.9.7 0 1.3.1 1.9.3zM927.8 334.4c0 .5-.2.9-.5 1.2s-.7.5-1.2.5-.9-.2-1.2-.5-.5-.7-.5-1.2.2-.9.5-1.2.7-.5 1.2-.5.9.2 1.2.5.5.7.5 1.2z"/></g></g></svg>