<svg xmlns="http://www.w3.org/2000/svg" width="283.465" height="155.432" viewBox="0 0 283.465 155.432"><path fill="#FFF" d="M127.278 115.77l78.194-87.52L77.99 0c24.453 17.685 41.56 36.205 48.563 61.07v.01c1.04 3.7 1.86 7.54 2.444 11.543 1.837 12.615 1.37 26.81-1.72 43.148"/><path fill="#C9388D" d="M170.535 44.225c-3.743-1.5-8.154 2.424-9.843 6.396-1.68 3.976-2.25 11.904-2.25 11.904s2.798 1.845 6.487 1.907c4.465.076 7.44-3.737 8.7-7.61 1.977-6.087.657-11.096-3.095-12.595"/><path fill="#C9388D" d="M173.06 36.72c5.52 0 10.188 3.672 10.123 11.282-.036 2.067-.295 4.076-.733 5.99l23.008-25.75-39.676-8.79-3.766 22.516c3.447-3.74 7.216-5.248 11.044-5.248M149.104 66.656l2.417-14.416.004.002 5.81-34.66L77.988 0c23.63 17.08 40.394 34.948 47.806 58.562l3.578-21.205h8.766l-1.616 7.71c1.99-3.308 6.164-7.352 9.976-8.092.724-.144 2.148-.15 2.558-.105l-1.554 9.724c-3.775-.567-11.318 2.515-12.39 8.633l-2.654 15.845h-3.716c.085.51.174 1.02.248 1.54 1.838 12.606 1.37 26.8-1.718 43.142l39.665-44.4c-.028.007-.06.014-.09.018-8.95 1.79-17.743-4.72-17.743-4.72M90.945 143.965c1.225 2.034 1.827 3.79 2.158 6.267l.134 1.065 4.81-6.156-7.685-2.145.583.97zM205.49 143.965c1.223 2.034 1.826 3.79 2.158 6.267l.13 1.065 4.812-6.156-7.683-2.145.582.97z"/><path fill="#4B5A6B" d="M10 138.532h3.678v16.585H10v-7.233H3.68v7.233H0v-16.585h3.68v6.617H10M21 152.232h5.67l-.444 2.885h-8.88v-16.585h9.11v2.887H21v3.73h4.802l-.413 2.734H21M38.522 150.888h-4.845l-1.167 4.23h-3.57L34 138.53h4.385l4.986 16.585h-3.726l-1.122-4.23zm-.746-2.8l-1.628-6.16-1.706 6.16h3.334zM49.793 152.232h5.62l-.443 2.885h-8.862v-16.585h3.685M55.053 138.532h12.402l-.416 2.885h-4.132v13.7h-3.684v-13.7h-4.17M80.022 138.532h3.686v16.585h-3.686v-7.233h-6.314v7.233h-3.682v-16.585h3.682v6.617h6.314M114.565 138.532h3.686v16.585h-3.685v-7.233h-6.315v7.233h-3.685v-16.585h3.685v6.617h6.315M129.345 148.57v6.547h-3.68v-6.592l-5.058-9.993h3.988l3.1 7.133 3.335-7.133h3.26M143.638 145.59h5.502v8.89c-1.12.39-3.402.952-5.523.952-2.934 0-5.062-.777-6.546-2.246-1.45-1.49-2.266-3.686-2.266-6.15.025-5.618 3.917-8.817 9.185-8.817 1.862 0 3.332.34 4.2.682l-.495 3.197c-.883-.41-2.007-.732-3.802-.732-3.076 0-5.426 1.81-5.426 5.443 0 3.522 2.143 5.553 5.172 5.553.814 0 1.56-.104 1.84-.225v-3.812h-2.26l.418-2.735zM152.89 138.532h3.688v16.585h-3.688zM163.99 152.232h5.667l-.444 2.885h-8.88v-16.585h9.12v2.887h-5.463v3.73h4.81l-.423 2.734h-4.387M182.6 138.532h3.215v16.585h-3.684l-6.032-11.48v11.48h-3.215v-16.585h4.097l5.62 10.36M193.165 152.232h5.664l-.447 2.885h-8.878v-16.585h9.11v2.887h-5.45v3.73h4.795l-.41 2.734h-4.385M229.167 138.532h3.685v16.585h-3.685v-7.233h-6.313v7.233h-3.69v-16.585h3.69v6.617h6.313M250.986 146.64c0 5.498-3.123 8.792-7.79 8.792h-.02c-4.685 0-7.457-3.735-7.457-8.498 0-4.983 3.052-8.717 7.738-8.717 4.873 0 7.528 3.833 7.528 8.424m-3.728.125c0-2.98-1.376-5.542-3.893-5.542-2.543 0-3.966 2.513-3.966 5.612 0 3.152 1.47 5.596 3.94 5.596h.024c2.474 0 3.894-2.397 3.894-5.665M269.78 138.532l.836 16.585h-3.402l-.514-12.457-3.613 12.457h-2.776l-3.078-12.063-.647 12.063h-3.22l1.002-16.585h4.692l2.93 11.28 3.172-11.28M277.8 152.232h5.665l-.446 2.885h-8.883v-16.585h9.114v2.887h-5.45v3.73h4.8l-.416 2.734H277.8"/></svg>