<svg id="Arte" xmlns="http://www.w3.org/2000/svg" viewBox="0 0 570.2 768.3"><style>.st0{fill:#FFFFFF;} .st1{fill:#7B868C;}</style><path class="st0" d="M0 0h570.2v768.3H0z"/><path class="st1" d="M118 592.2c2.7-12.2 9.3-23 14.9-34.1.2-.4.4-.7.6-1.2-2.1-.4-4.2-.6-6.2-1.1-1.6-.3-3.3-.7-4.9-1.3-2.3-.9-3.6-2.6-3.7-5-.1-1.4.3-1.9 1.8-2 2.4-.1 4.8-.1 7.2-.3 2.7-.2 5.3-.4 7.9-.7 1.8-.2 3.2-1.2 4.2-2.6 4.9-7.2 8.9-14.8 12.2-22.8.1-.2.1-.4.2-.8-2.3.5-4.5.9-6.6 1.3-2.3.4-4.5.9-6.8 1-3.8.2-8.1-3.2-8.9-6.7-.4-1.7.7-3.3 2.6-3.6 3.5-.7 7-1.3 10.5-1.8 4.8-.7 9.5-1.2 14.3-1.7 1-.1 1.6-.4 2.2-1.2.8-1 1.7-1.9 2.7-2.8 1.9-1.6 3.3-1.7 5.3-.2 2.1 1.6 4.3 2.9 7.1 2.7 2-.1 4-.3 6-.5 12.4-1 24.8-1.8 37.3-1.3 3.9.2 7.8.7 11.7 1.1 1 .1 2 .5 3 .9.9.4 1.5 1.1 1.5 2.2.1 1.5-.3 1.9-1.9 1.9-12.2.1-24.4.4-36.6 1.7-7.6.8-15.2 2.1-22.8 3.1-1.3.2-2.2.8-3 1.8-5.8 7.8-11 16-15.3 24.6-.2.3-.3.7-.4 1.1-.3 1.5.3 2.4 1.9 2.4 2.1 0 4.2-.2 6.3-.3 5.8-.5 11.5-1.1 17.3-1.5 1.6-.1 3.2.2 4.8.5.7.2 1.5.8 2 1.4 1.2 1.6.6 2.7-1.4 3-6.8 1.2-13.6 2.5-20.5 3.8-4.8.9-9.6 1.8-14.4 2.6-2 .4-3.5 1.3-4.4 3.1-4.2 8.1-8.5 16.2-12.6 24.4-2.3 4.5-4.2 9.2-6.3 13.8-.2.5-.4 1-.7 1.5-1 1.9-2.8 2.4-4.5 1-1.7-1.4-2.7-3.3-3.4-5.2-.2-.5-.3-.9-.5-1.4.2-.4.2-.5.3-.8zM243.4 559.5c-.9 0-1.8.1-2.6 0-3-.2-6.1-.2-9-.7-4-.8-5.6-3.9-4.3-7.3.6-1.6 1.1-1.8 2.8-1.3 5.9 1.7 11.9 2.3 18 1.3 2.1-.3 4.2-1.1 6.2-1.9 1.3-.5 2.3-.5 3.4.3.1.1.3.2.4.3 4.2 3 4.5 6.2.6 9.4-3.4 2.8-7.1 5.2-10.6 7.8-1.8 1.3-3.6 2.6-5.7 4.1 4.5.7 8.4 2 10.9 5.5 2.6 3.7 2.1 7.6.7 11.6.8.2 1.4.3 2.1.4 4.8 1 9.3 2.6 13.3 5.4 1 .7 1.8 1.5 2.5 2.4.6.7.5 1.5-.3 2.2-.6.5-1.2.7-1.9.2-2.9-1.9-6-3.5-9.6-3.9-2.6-.3-5.3-.2-8-.4-.9 0-1.1.5-1.4 1.1-5.5 10-12.9 18.3-23.4 24-3.3 1.8-6.8 2.8-10.6 2.7-3.7-.1-6.9-1.5-9.4-4.2-2-2.2-2.4-4.6-1.1-7.2 1.2-2.4 3-4.3 5-6 8.7-7.4 18.8-12.4 29.9-15.7 1-.3 1.6-.7 2.2-1.5 1.2-1.6 2.1-3.3 2.5-5.2.4-2.5-.7-4.1-3.3-4.6-2.8-.6-5.6-.2-8.4.3-1.7.3-3.3.8-4.9 1.3-1.9.6-2.2.6-3.4-.9-.1-.2-.3-.4-.5-.6-.9.9-1.7 1.9-2.6 2.8-2.6 2.6-5.3 5.1-8.8 6.6-1.2.5-2.5 1-3.8 1.2-4.7.8-8.2-1.9-8.5-6.5-.1-2.1.2-4.2.4-6.2-1.9 1.6-3.9 3.4-6 5.2-3.5 2.9-7 5.8-11.2 7.8-1.5.7-3.1 1.3-4.8 1.6-4.3 1-7.6-1.3-8.3-5.4-.5-3.2.1-6.3 1.2-9.3 4.1-10.5 10.9-19 21.1-24.8 3.5-2 7.4-3.1 11.5-3.2 3.2 0 6.6 2.6 7.3 5.6.2 1-.2 1.5-1.2 1.7-9.6 2.5-17.5 7.5-23.8 14.7-2.1 2.4-3.6 5.2-5.3 7.9-.5.7-.7 1.6-.8 2.5-.3 1.3.6 2.1 1.9 1.5 1.3-.5 2.6-1.2 3.7-2 6.6-4.9 12.7-10.4 18.1-16.5l.2-.2c1.2-1.4 2.4-2.9 4.6-2.4 2.6.6 4.7 2 5.9 4.4.3.5 0 1.4-.3 2-1.5 3.1-3.1 6.2-4.5 9.4-.5 1.1-.7 2.4-.8 3.6-.1 2 1.2 2.9 3.2 2.3 2.7-.8 5-2.3 6.9-4.2 6.6-6.7 14.8-11.7 21.9-18 .3-.3.6-.6 1-.9-.3.1-.3 0-.3-.1zm-4.5 36.5c-1 .5-2 .9-2.8 1.4-4.5 3.1-9.1 6.1-13.5 9.3-2.4 1.8-4.6 3.8-6.9 5.8-.4.4-.6 1-1 1.6 5.1.9 23.5-12.9 24.2-18.1zM495 627.7c-1.3-.7-2.5-.5-3.7.7-4.3 4.5-8.8 8.7-14.3 11.4-1.1.5-2.4.7-3.6.7-.3 0-.6-.2-.7-.5-.3-1.2-.3-2.6 0-3.9 1.4-5.7 3.1-11.3 4.6-17 1-3.5.7-6.7-2-9-1.3-1.2-2.9-2.1-4.6-2.8-2.4-1.1-4.8-.8-7 1-2.1 1.6-4.2 3.1-6.2 4.9-5.8 5.2-11.5 10.6-17.2 15.9-.8.7-1.7 1.4-2.6 2-.2-.2-.2-.2-.5-.4.4-1.1.9-2.3 1.3-3.4 2.6-7.1 5.3-14.3 7.8-21.4.9-2.5.2-4.8-1.2-6.7-3.2-4.5-10-5.8-15-3.1-2 1.1-4 2.4-5.8 4-6.4 5.8-12.7 11.9-19 17.8-.4.4-.8.8-1.3 1.2h-.1c0-.7.2-1.1.4-1.6 1.9-4.7 3.9-9.4 5.6-14.1.6-1.5 1-3.3.9-4.9-.2-4.4-4.7-7.8-9.7-7.7-2.4.1-3.3.8-4.1 3.1-3.1 8.9-6.5 17.7-9.2 26.6-1.8 5.9-5.4 10-10 13.5-.8.6-1.7 1.3-2.5 1.8-5.3 3.5-10.7 6.4-17 6.9-7.4.5-12.2-4.7-11.4-12.7.9-.2 1.9-.4 2.8-.6 8-2 14.7-6.5 21-12 3.6-3.2 6.8-6.8 8.6-11.5 3-7.6-.1-14.2-7.6-16-5.8-1.4-11.3 0-16.4 3.3-12.8 8.3-20.9 20-23.4 35.5-.1.7-.4 1.7-1 2.1-2.9 2.3-5.7 4.6-8.8 6.6-2.6 1.7-5.6 2.6-8.9 2 0 0-.1-.1 0-.1.6-.9.8-1.2 1.6-2.3.9-1.2 1.8-2.4 2.6-3.6 4.9-7.5 9-15.4 10.2-24.2 1-7.7-2.6-13.4-9.2-14.3-4.3-.6-8.2 1.1-11.5 4.2-3.7 3.4-7.9 7.8-8.9 12.8-.2.9.1 2.2 1.8 2.8 1.4.5 7.3-4.3 10.5-6.5l.1-.1c.7-.7 2-1.3 2.9-1.3h.1c.4 0 .8.1 1 .3.4.4.5 1 .5 1.7 0 2.2-1.4 6.1-3.9 11.2l-1.2 2.4c-1 1.9-2.1 3.9-3.4 6.1-5.4 9.3-10.1 11.7-12.4 12.4-.5.2-1.1.2-1.5.2h-.1c-1.9-.1-3.1-1.8-3-4.9 0-4.1.4-8.2 1.2-12.3 2-10.1 5.8-19.7 10.2-29 0 0 3.5-7.7 9.8-18.9 3.7-6.8 7.7-13.5 12.1-19.8l.1-.1c1.5-2.2 3.1-4.5 4.9-6.8.8-1.1 1.7-2.2 2.5-3.2 2.9-3.7 6.1-7.1 9.3-10.5l.4-.4c4.6-4.9 11.6-10.3 12.1-13 .3-1.6-2.8-4.5-6.5-4.3-4.1.2-7.7 1.8-11.3 3.9-7.1 4.4-13 10.3-18.1 16.9-19.1 24.6-32.7 51.9-40.4 82-1 4-1.7 8.1-1.8 12.2-.4 14.4 5.8 21.6 16.8 20.3 5.9-.7 11-3.4 15.8-7.2.8-.7 1.9-1 2.9-.8 2 .4 4.1.6 6.2.3 4.2-.5 7.9-2.6 11.4-5.2 1.7-1.3 3.3-2.7 5-4 .1.1.2.2.2.3l.3 1.2c1.7 7 5.9 11.6 12.7 13.4 8.6 2.2 16.9.6 24.6-4.2 3.8-2.3 7.3-5.4 10.5-7.8h.1c.4 1.9.7 4.2 1.5 6.3 1.6 4.2 4.5 6.7 9.2 2.2 6.5-6.1 12.8-12.4 19.1-18.8 5.4-5.4 10.5-11.1 15.8-16.6.7-.8 1.6-1.4 2.5-2.1.3.2.2.2.5.3-.3 1.1-.6 2.1-1 3.2-2.4 6.7-5.1 13.3-7.3 20-1.8 5.4-.5 9.2 3.6 12.6 3.7 3 6 3 10-.1.4-.3.9-.7 1.3-1.1 4-3.7 8-7.4 12.1-11.1 3.8-3.4 7.7-6.8 11.6-10.2.5-.4 1.1-.7 1.7-1l.4.4c-.6 1.5-1.1 3-1.7 4.5-1.6 4.2-3 8.4-3.2 12.9-.2 5.7 3.1 9.6 8.6 9.6 2.5 0 5.1-.3 7.5-1.2 9.6-3.7 16.3-11.3 22.7-19.2.9-.9.6-1.7-.3-2.1zm-143.2-12.6c2.7-4.7 6-8.9 10.4-12.1 1.3-.9 2.8-1.7 4.4-2.1 2.1-.6 3.2.7 2.5 2.9-.5 1.5-1.2 3-2.2 4.3-4.6 6.2-10.6 10.5-17.5 13.5-.1.1-.3 0-.8.1 0 0-.1 0-.1-.1 1.2-2.4 2.2-4.5 3.3-6.5z"/><g><path class="st1" d="M395 186.3c-22.1-31.6-41.6-42.2-47-47.2-6-5.5-10.6-11.8-13.5-14.8-6.5-6.8-14.9-15.1-28.7-15.1-13.3 0-22.1 8.3-25 15.5-.8 2-1.5 4.6-2.1 5.5-1.3 2-7.2 11.7-9.6 15.5h11l-5.3 9.7c6.2-1.3 10.7-2.3 16.6-2.3 5.3 0 9.1 1.2 10.8 4.4 3.1 5.9 3.1 23.8 8.3 37.3 4.9 12.7 16.8 25.1 30.1 34.6.2.1.4.2.6.2.7 0 1.1-.5 1.1-.9 0-.3-.1-.6-.4-.9-11.2-10.7-20.3-22.5-25.1-35.5-4.8-12.6-4-30.4-8.3-38.3-2.8-5.2-8.7-6.6-14.2-6.6-4.4 0-8.5.9-10.4 1.3l4.8-7.8h-8.1c1.7-2.9 3.5-5.6 4.4-7.2.8-1.4 1.1-3.1 2-5.4 3.1-7.5 9.9-12.2 18.8-12.2 11.2 0 17.7 6.9 24.2 13.8 3 3.2 7.8 9.8 13.5 14.8 3.9 3.4 11.2 7.2 22.6 18.4 6.5 6.5 14.1 14.9 22.2 26.2 28.7 40.2 47.6 75.7 58.1 103.3l-.2.1c-30.1-19.6-56.2-38.1-77.3-60.9-14.9-16.2-27.9-35-39.2-59-.8-1.6-1.4-3.1-2.1-4.6-.3-.6-.6-.8-1.1-.8-.6 0-1 .4-1 1s.3 2 1 4.7c6 24.8 22.6 47.1 40.4 65.6 17.7 18.4 37.7 34.2 54.2 45.7l12.8 35.2c.3.9.7 1.8.7 2.6 0 .6-.2 1.1-.6 1.5-.4.3-.8.5-1.9.5h-3.9c-1.7 0-2.3-.2-2.9-.7-.6-.5-1-1.1-1.3-1.9-1.1-3.3-7.9-21.8-9.2-25.6-.2-.7-.7-.9-1.1-.9-.6 0-1 .5-1 1s.2 1 .5 2.6c1.7 8.4 3.7 17.9 4.6 21.5.4 1.6.8 3.2.8 4.3 0 1-.2 1.6-1.1 2.4l-4 3.9c-.9.9-1.5 1.1-2.3 1.1-1 0-1.7-.6-2.1-2.2-4.5-20.2-11.4-45.2-13.1-52.2-.4-1.5-.7-2.4-1.7-2.4-.8 0-1.1.6-1.1 1.3 0 .5.1 1.1.2 1.6 1.1 7.2 5.4 33.3 10.1 57.1.8 4.1 2.4 6.4 6.1 6.4 1.7 0 3.3-.6 4.8-2 2.4-2.3 3.2-3 6.1-5.7 2.1-1.9 3.5-2.7 7.1-2.7h8.8c2.1 0 3.2-.5 4.2-1.4.9-.9 1.5-2 1.5-3.8 0-1.8-.5-3.2-1.1-4.9-2.3-5.8-9.5-25.4-11.7-31l.2-.1c7.4 5.4 18.2 12.3 23 12.3 1.5 0 2.4-.6 2.4-2.8-.2-10.7-18.3-53.8-59.9-113.1M190.9 120.2c1.2-2.6 4-4.4 7.3-4.4 4.5 0 8 3.3 8 7.7 0 2.6-1.3 4.8-3.2 6.1.4 1.5.7 2.8.7 4 0 4.8-3 8.1-8.4 9.9-.7 2.9-2 5.5-4.2 7.5-3.6 3.3-7.2 3.3-7.2 4.7 0 .7.5 1.2 2 1.2 6.6 0 13.1-3.5 13.9-9.4 6.3-2.1 10.1-8.1 10.1-13 0-1.3-.1-2.3-.7-3.4 1.7-1.6 3.7-4.3 3.7-8.4 0-3.5-1.6-7.1-4.5-9.7-2.5-2.3-6-3.9-10.1-3.9-5.9 0-9.8 3.1-12 6.1-6.5 0-14.9 6.9-14.9 16.7h-.9c-.6-3.4-4.3-5.7-7.4-5.9-2.5-7.2-8.1-13.3-17.4-13.3-1.1 0-2.4.1-3.5.2-2.7-2.4-5.8-3.9-10-3.9-8.1 0-14.7 6.2-14.7 14.1 0 4.9 2.3 8.3 6.7 11.2 0 0-.1.6-.1.9 0 6.3 7.1 16 17.7 16 0 1.6 2.1 3.8 4.4 4.2v.8h-.9c-14.6 0-20.7 6.7-20.7 11.2-4.3 1.7-7.1 6.3-7.1 10.6 0 8.5 6.5 14.5 15 14.5 2.9 0 5.8-1.1 7.8-2.6 1.5.5 3.4.8 5.3.8 4.1 0 8.7-1.4 11.9-5.9.5.1.9.1 1.4.1 5.2 0 9.8-3.3 12.1-7.6.6-1.1.8-1.9.8-2.6 0-.6-.3-1.1-.9-1.1-.8 0-1 .7-2.4 2-3.3 2.9-8.4 4-13.7 4-2.6 3.6-5.7 5.5-9.3 5.5-2.7 0-4.8-.7-6.9-2-1.7 1.8-3.9 2.6-5.9 2.6-4.7 0-8-3.1-8-7.7 0-3.2 2.1-6 5.1-7.1.5-5.6 6.8-9.4 14.7-9.4 1 0 2 .1 3.1.2 1.2-1.8 4-3.8 8.1-4.3.8-.1 1.5-.2 2-.4s.7-.7.7-1.2-.2-.9-.7-1.1c-.4-.2-1.1-.3-2-.5-3.7-.7-8.2-2.9-10.5-8.3-9 0-15.6-6.9-15.6-14.6v-.5c-3-1.1-5-3.9-5-7.1 0-4.3 3.5-7.7 8-7.7 2.7 0 5 1.3 6.5 3.1 1.2-.3 2.7-.5 4-.5 6.7 0 13.8 4 15.2 11.9 8.6.7 10.6 7.7 11.1 10.6.3 1.5.5 2.7 1.5 2.7 1.1 0 1.3-1.1 1.7-2.7.7-2.9 1.8-5.2 4-7.1.2-7.4 6.1-13.8 14.3-13.8M208.2 164.8c-2.8 3.8-4.8 5.7-11.2 12.9-8.4 9.5-12.8 17.2-20.1 34.3 1.2-.1 2.9-.2 4.8-.2 1 0 1.7 0 3 .1l.9-1.8c4.1-8.4 9.6-19.8 17.4-28.6l2.7-3c8-8.9 12.9-14.2 16-26.4 1.1-4.3 2-8.2 5-11 2.7-2.5 6.2-3.6 9.7-3.6 3 0 5.2.7 8.4 2 2.9 1.2 4 1.4 7.1 1.4 1.1 0 1.8-.1 2.6-.1l-4.2 5.3 5.6 3.8c-7.1 2-10.8 8.5-12.1 11.6-.2.6-.4 1-.4 1.4 0 .5.2.9 1 .9s1.4-.6 2.4-1.7c3.4-4 6.2-6.7 18.9-10.5l-9-6.5 6.8-9.5h-6.4c-4 0-6.7-.1-10.2-1.6-4.8-2.1-7.2-3-11.4-3-5.2 0-9.9 1.8-13.7 5.2-4.5 3.9-5.8 9.2-7.4 14.9-1.4 4.3-2.9 9.2-6.2 13.7"/><path class="st1" d="M221.9 203.5c-3.4 4.4-8 10.1-11.6 16.2 1.1.5 4.9 2.4 6.2 3.1 4.1-5.9 9.8-13.2 13.6-18.7 3.4-5 4.8-7.2 5-13.9.1-1.1.1-2.2.2-3.3.3-3.5 1.3-7 4.7-10.2 2.6-2.4 6.2-3.7 9.9-3.7 3.6 0 5.6 1 8.7 1 2.2 0 3.8-.5 5.2-1l1.1-.4-2.7 6.3 6.4 2.5c-4.1 2.4-13.1 13-13.1 25.4 0 4.5.7 8.7 1.7 12.3.1.4.4.8 1 .8s1-.3 1.1-1l.1-1.3c.2-3.8.5-9.8 2.1-15.3 2.7-9.1 9.9-17.6 17.1-21.7l-10.2-4.3 4.4-10.3-4.8 1c-2.9.6-5.1 1.1-7.6 1.1-1.7 0-3.6-.2-5.8-.7-1.7-.4-3.6-.7-6.2-.7-4.7 0-9.8 1.7-13.2 4.9-6.3 5.7-6.7 12-7.1 17.5-.6 7.2-2.1 9.1-6.2 14.4M374.4 207c-.4-.5-.8-.7-1.2-.7-.7 0-1.1.5-1.1 1 0 .8.6 1.8 2.1 4.2 4.5 7.3 10.1 14.7 17 21.7 7.4 7.6 16.2 14.6 25.5 20.9l2.9 1.9c.4.3.7.5 1.1.5.6 0 1-.6 1-1 0-.3-.1-.6-.5-.9-8.7-7.6-18-16.8-26.8-25.7-6.8-7.1-13.8-14.5-20-21.9M183.1 181.2c.9-1.4 3.6-4.9 4.6-6-4.6-8.9-12.1-17.4-15.3-20.7l-2.7 2.6c3.1 4.4 8.4 12.8 13.4 24.1M139.6 129.8c-.5-.5-.7-.7-.7-1.1 0-.4.3-.9 1-.9.2 0 .5.1.8.2 4.4 1.7 8.1 3.7 11.5 6.1 2.8 2 5.5 4.6 8.2 7.6l-2.5 2.7c-3.2-2.3-13.2-10.4-18.3-14.6M181.7 148.9l-3.2-1.9c2.1-4.7 4.6-9 7.7-12.3 2.1-2.3 4.2-4.2 6.4-6.1.5-.4.8-.7 1.4-.7.6 0 1 .5 1 .9 0 .2-.1.5-.4.9-3.6 5.4-10.7 16.1-12.9 19.2M141.4 175.3c-.8.3-1.1.5-1.5.5-.7 0-1-.5-1-.9s.2-.6.6-1c7.3-5.5 13.7-7.6 22.6-9l1.1 3.4-21.8 7zM293.9 131.1c0-2 1.1-5.6 4.9-5.6 1.3 0 2.6.3 3.6.7 1.4.6 2.4 1.5 2.4 2.5s-1.1 2-2.7 3.3c-1.7 1.3-3.8 2.5-5.5 2.5-2.1.1-2.7-1.8-2.7-3.4M233.5 147.8c0-2.4 1.5-5.1 4.5-5.1 1.3 0 2.9.5 4 1.5.7.6 1 1.2 1 1.8 0 1.4-1.4 2.7-3 3.6-1.3.7-2.6 1.1-3.7 1.1-1.8 0-2.8-1.1-2.8-2.9"/><path class="st1" d="M247.5 182.9c0-.6.1-1.3.3-1.9.5-1.5 1.5-2.9 4-2.9 1.1 0 2.4.3 3.4 1 .9.6 1.2 1.3 1.2 2 0 2.4-4.3 5.3-6.4 5.3-1.5-.1-2.5-1.5-2.5-3.5M224.1 254.7c-8 0-11.6-3.6-11.6-8.2 0-8.1 14.8-16 28.1-20.9l3.4 4.3c-8.2 3.1-24.7 9.8-24.7 15.6 0 2 1.2 3.5 6.2 3.5 8.7 0 18-4 26.6-8.1.7-.3 1.4-.6 2.1-.6 1.1 0 1.8.3 2.7 1.5l1.4 1.9c-9.9 5.3-22.4 11-34.2 11"/><path class="st1" d="M246.2 256.8c-7.8 4.2-16 7-23.2 7-8 0-15.2-3.3-21.1-11.9-2.5-3.6-4.5-8.2-6.8-12.2-2.9-4.8-5.9-7.3-11.4-7.3-4.9 0-9.7 1.9-14.9 4l.2 1.1c.4 1.8 1.1 3 2.9 3 .8 0 1.5-.3 2-.5 2.9-.9 4.9-1.6 7.8-1.6 4.5 0 6.6 2.5 9.6 8.7l1.1 2.3c-3.1 1-10.3 1.5-15.8 1.5H174l.4 2.4c.2 1 .6 1.9 1.5 2.3 1.1.5 2.6.6 5.3.6 6.8 0 11.7-.8 14.6-1.5 7.3 10.4 17.4 14.4 27 14.4 8.3 0 16.6-2.9 24.7-7.1l-1.3-5.2zM254.3 259.4l-1.4-5.2c12.2-6.3 23.4-11.4 41.3-13 .4 6.5-.1 14.8 4.9 14.8 4.6 0 14.7-11.4 26.4-25.8 1.1 1 2.8 2 4.3 3.1l-3 3.7c-11.4 14-21 25.9-29 25.9-7.4 0-10.2-8.4-10.3-14.6-11.4 1.1-22.1 4.7-33.2 11.1M411.6 145.2c-4.6 0-5.9-2.4-5.9-5.9 0-7.2 4.7-17.5 7.7-23.3h-7.2c-3.7 6.9-18.5 29.2-26.5 38.4l4.6 4.7c4.3-4.5 9-12.3 14.1-19.9h.9c0 .4-.1.9-.1 1.3 0 6.4 3.4 11.2 11.9 11.2 5.2 0 13.4-2.5 21.2-5 6.4-2.1 12.3-4.3 15.2-5.1v-6.8c-3.3 1-10.1 3.5-17.1 5.8-7.3 2.4-14.6 4.6-18.8 4.6M427.5 165.8c7.1-2.9 19.9-7.8 27.3-10.4v-6.9c-14.8 5.2-40.8 15.5-58.5 24.8.5.6 3.6 4.7 3.9 5.2 7.5-3 14.2-4.9 20.3-4.9 8.5 0 15.5 0 27.1-2.6v-5.2c-6.5 1.1-13.5 2.5-18 2.5-2.7 0-3.4-.3-3.4-1.2-.1-.5.2-.9 1.3-1.3M272.3 203.1h30.4l-2.3-5.3h-25.2z"/><path class="st1" d="M165.7 229.1c3.2 0 5.8-1 8.3-2 2.4-.9 4.8-1.8 8-1.8 7.6 0 17 3.5 25.3 6.9.5.2 1 .3 1.5.3 1.3 0 2.3-.6 3-1.8l1.1-1.9c-9.1-5.1-23.6-10.5-31.2-10.5-3.4 0-5.9.9-8.3 1.8-2.7 1-5 2.1-7.4 2.1-6 0-21.4-5.7-21.4-11.2 0-6.5 24.5-9 27.2-9l2.4-5.3c-17.8 0-38.9 6-38.9 13.9 0 2.3 1.4 3.4 1.4 5.5 0 2.8-1.4 4.8-1.4 8 0 2.1 1.3 4.8 2.9 7.1 1.7 2.4 3.6 4 3.6 6.1 0 1.5-1.1 3.4-1.1 6.9 0 7.7 4.6 12.4 13.5 21.5l1.8 1.8c-7.4 2.7-21.1 8.4-24.3 9.7-11.1 4.4-13.9 9.8-13.9 18.4 0 3.3 0 7.1.2 10.4h2.1c4.5 0 5-2.6 5-5 0-1.6-.1-3.5-.1-5.6.1-4.7.2-8.9 8.2-12.3 3.2-1.4 19-7.5 30.7-12.3 3.4-1.4 6.7-2.6 10.2-2.6 4 0 8.6 1.6 14.3 4.9 4.8 2.7 9.9 6.4 13.9 10.7l5.1-3.7c-4.3-4.9-10.3-9.3-16.3-12.7-6-3.4-11.4-5.4-15.9-5.4-2 0-3.6.3-4.9.7-1.6.4-3.1.9-5 .9-2.2 0-4-.5-6.7-3.5-1-1.1-7.4-8.1-8.8-10.1-.7-1-1.8-2.9-1.8-5.2 0-1 .2-2.1.8-3.1 5.5 4.1 12.4 6.6 20.7 7.6l-1.1-5.4c-11.9-3-24.7-13.1-24.7-19.6 0-1.4.4-2.3.9-3.5 4.3 4 15.2 8.3 21.1 8.3M251.3 230.1c7.5-5.1 15.2-5.6 21.5-5.6 3.7 0 8.1.5 12.8 1.1 3.7.5 7.1.8 11.2.8 8.1 0 16.4-2.8 19.9-4.3 1 1.2 2.7 2.8 4.1 3.9-1.7 1-12.7 6.7-23.8 6.7-4.9 0-9.6-.6-13.7-1.1-3.6-.5-7.4-.9-11.2-.9-4.1 0-12.4 1.1-17.5 3.5l-3.3-4.1z"/><path class="st1" d="M361.6 250.4c-8.9 18-22.5 31.1-36.4 38.6-6.6 3.6-12.5 5.9-25.4 5.9H272c-9.9 0-16.2 1.3-21 2.4-5.2 1.3-8.6 2.6-13.9 2.6-7.8 0-15.1-3.7-18.6-7.2l6.5-4.9-3.3-4.2c-1.9 1.3-25.1 17.8-30 21.5l-.3-.2c.1-1.1.1-2.2.1-3.2 0-12.5-6.1-15.5-15.3-19.1l-6.2 3.5c12.7 4 15.8 7.3 15.8 16.3 0 7.2-2.7 10-6.5 12.2-4 2.2-8.9 3.2-13.3 3.2-1.8 0-2.7.3-3.3 1-.7.7-1.1 1.7-1.1 3.1v2h1.5c8 0 15.3-1.2 23.4-7.3l26.3-19.7c3.7 4.1 13.2 9.8 24.4 9.8 6.3 0 10.3-1.5 16.2-2.9 4.5-1.1 8.9-2 18.5-2H300c14.3 0 21.2-2.8 28.8-6.9 16.5-8.9 30.6-23.9 38.6-41.1-2.1-1.2-4.1-2.3-5.8-3.4"/><path class="st1" d="M316.9 271.8c7.2-11 13.6-20.8 29.4-28.8-1.7-1-4-2.4-5.3-3.2-6.1 2.6-12.2 7.7-17.4 12.9-11.9 11.8-10.8 18.7-23.4 23.3-3.1 1.1-7 2.4-11.9 3.5-2.9-8.6-10.2-17.1-18-17.1-5.4 0-11.5 2.7-18.7 5.7-8.4 3.5-16.1 7.6-18.5 9.1l3.3 4.2c2.5-1.3 9.7-4.7 16.9-7.7 6.2-2.6 11.9-4.7 15.7-4.7 6.1 0 10.1 6.7 12.3 12-8 1.8-21.2 2.3-25.2 2.3-1.8 0-2.5.3-3.1.8-.6.5-1.1 1.4-1.4 2.7l-.5 1.9h4.3c22.2 0 43.2-3.4 56.7-11.2 1.9.5 3.6.9 5.7.9 7.7 0 15.7-4 20.7-7.7 1.8-1.3 2.2-2.5 2.2-3.8 0-.6-.1-1.2-.1-1.8l-.2-2.2c-7.1 5.4-13.1 9.4-20.4 9.4-1.4-.1-2.3-.3-3.1-.5"/></g><g><path class="st1" d="M483.7 458.2c-6.7 0-12.3-5.5-12.3-12.3 0-6.7 5.5-12.3 12.3-12.3 6.7 0 12.2 5.5 12.2 12.3 0 6.8-5.5 12.3-12.2 12.3zm0-22.2c-5.5 0-9.9 4.5-9.9 9.9 0 5.5 4.5 10 9.9 10s9.9-4.5 9.9-10c0-5.4-4.5-9.9-9.9-9.9zm2.3 16.5c-.7-1.9.3-5.4-2.4-5.4h-2.1v5.4h-3v-13.2h5.9c2.4 0 4.5.5 4.5 3.4 0 1.9-1.2 2.8-3 3.2 3.6.5 2.3 4.1 3.3 6.7H486zm-2.7-11.1h-1.8v3.7h1.9c1.4 0 2.5-.2 2.5-1.9 0-1.6-1.2-1.8-2.6-1.8zM386.5 372.4c0-2.8-2.3-5.2-5.2-5.2h-7.6c-2.8 0-5.2 2.3-5.2 5.2v79.7c0 2.8 2.3 5.2 5.2 5.2h7.6c2.8 0 5.2-2.3 5.2-5.2v-79.7zM396.2 374.5v3.8c0 1.6 1.3 2.9 2.9 2.9h52.6c2.4 0 4.4-1.9 4.4-4.3v-6.4c0-2.4-2-4.6-4.4-4.3 0 0-50.8 5-52.5 5.2-1.9 0-3 1.5-3 3.1M353.6 457.3c-13.1 0-21.3-9.9-21.3-21v-31.9h-3.8c-2 0-3.6-1.6-3.6-3.6v-5.3c0-2 1.6-3.6 3.6-3.6h3.7v-19.6c0-2.8 2.2-5 5-5h7.4c2.8 0 5 2.3 5 5v19.6h11.6c2 0 3.6 1.6 3.6 3.6v5.3c0 2-1.6 3.6-3.6 3.6h-11.6v29.5c0 5.8 3.5 9.8 9.8 9.8h1.1c2.2 0 3.9 1.8 3.9 3.9v5.8c0 2.2-1.8 3.9-3.9 3.9h-6.9zM231.1 403.2c7.8 0 14.5 5.6 15.2 13.1H216c.7-7.5 7.3-13.1 15.1-13.1v-13.6c-21.1 0-33 16.6-33 34 0 18.6 12.7 35 33.1 35 14 0 27.8-7.4 30.4-19.5.3-1.6-.8-3.8-3.1-3.8h-10c-1.8 0-3.3.9-4.2 2.2-2.9 4.2-7.1 6.4-13.3 6.4-8.7 0-14.8-6.9-15.3-14.5h42.5c3.9 0 5.7-2.1 5.7-5.7 0-17-10.1-34-33-34v13.5zM424.9 403.2c7.8 0 14.5 5.6 15.2 13.1h-30.3c.6-7.5 7.3-13.1 15.1-13.1v-13.6c-21.1 0-33 16.6-33 34 0 18.6 12.7 35 33.2 35 14 0 27.8-7.4 30.4-19.5.4-1.6-.7-3.8-3-3.8h-10c-1.8 0-3.3.9-4.2 2.2-2.9 4.2-7.1 6.4-13.2 6.4-8.8 0-14.8-6.9-15.3-14.5h42.5c3.9 0 5.7-2.1 5.7-5.7 0-17-10.1-34-32.9-34v13.5z"/><path class="st1" d="M318 368.1H180.2c-3.1 0-5.7 2.5-5.7 5.7l.5 54.1s-29.7-53.6-31.2-56.3c-1.5-2.6-4.6-5-8.9-5h-11.3c-3.1 0-5.7 2.5-5.7 5.7v79.3c0 3.1 2.5 5.7 5.7 5.7h7.3c3.1 0 5.7-2.6 5.7-5.7l-.5-55.6s30 54.1 31.3 56.3c1.7 2.9 4.7 5 8.9 5h10.4c3.1 0 5.7-2.5 5.7-5.7v-70h125.7c2.1 0 3.9-1.7 3.9-3.9V372c-.1-2.2-1.9-3.9-4-3.9"/><path class="st1" d="M295.7 402.6c6 0 10.5 2.2 12.1 5.9.8 1.8 2.3 2.2 4.3 2.2h8.2c1.4 0 2.9-1.2 2.9-3 0-9.6-11.4-18.1-27.6-18.1-16.7 0-27.7 8-27.7 20.7 0 9.7 7.7 15.5 17.1 18 4.3 1.1 11.6 2.9 15.2 3.9 3.9 1 7.3 2.2 7.3 5.5 0 5.2-5.5 7-11.5 7-5.7 0-11.3-2.5-13-6.6-.9-2.3-2.6-2.7-5.1-2.7h-8.4c-1.5 0-3.1 1.3-3.1 3.2v1.1c0 9.3 12.4 19 29.6 19 12.2 0 29.1-5 29.1-21.4 0-9.4-6.3-16-16.6-18.6-4-1-13.7-3.5-15.8-4-3.8-1-7.3-2.2-7.3-5.4.2-5.1 4.7-6.7 10.3-6.7"/></g></svg>